<mxfile host="Electron" modified="2023-05-05T09:49:48.165Z" agent="Mozilla/5.0 (Windows NT 10.0; Win64; x64) AppleWebKit/537.36 (KHTML, like Gecko) draw.io/21.1.2 Chrome/106.0.5249.199 Electron/21.4.3 Safari/537.36" etag="sX5fb2ShoqO1_Nk3ZWrA" version="21.1.2" type="device">
  <diagram name="Page-1" id="VStVm216bVT6x2xg9EZD">
    <mxGraphModel dx="1418" dy="828" grid="0" gridSize="10" guides="1" tooltips="1" connect="1" arrows="1" fold="1" page="1" pageScale="1" pageWidth="1654" pageHeight="1169" math="0" shadow="0">
      <root>
        <mxCell id="0" />
        <mxCell id="1" parent="0" />
        <mxCell id="iyMpevj_MP7e8I89YOsK-20" value="Airport" style="shape=table;startSize=30;container=1;collapsible=1;childLayout=tableLayout;fixedRows=1;rowLines=0;fontStyle=1;align=center;resizeLast=1;rounded=1;fillColor=#F5AB50;strokeColor=#909090;fontColor=#1A1A1A;" parent="1" vertex="1">
          <mxGeometry x="314" y="763" width="100" height="120" as="geometry" />
        </mxCell>
        <mxCell id="iyMpevj_MP7e8I89YOsK-21" value="" style="shape=tableRow;horizontal=0;startSize=0;swimlaneHead=0;swimlaneBody=0;fillColor=none;collapsible=0;dropTarget=0;points=[[0,0.5],[1,0.5]];portConstraint=eastwest;top=0;left=0;right=0;bottom=1;rounded=1;strokeColor=#909090;fontColor=#1A1A1A;" parent="iyMpevj_MP7e8I89YOsK-20" vertex="1">
          <mxGeometry y="30" width="100" height="30" as="geometry" />
        </mxCell>
        <mxCell id="iyMpevj_MP7e8I89YOsK-22" value="PK" style="shape=partialRectangle;connectable=0;fillColor=none;top=0;left=0;bottom=0;right=0;fontStyle=1;overflow=hidden;rounded=1;strokeColor=#909090;fontColor=#1A1A1A;" parent="iyMpevj_MP7e8I89YOsK-21" vertex="1">
          <mxGeometry width="30" height="30" as="geometry">
            <mxRectangle width="30" height="30" as="alternateBounds" />
          </mxGeometry>
        </mxCell>
        <mxCell id="iyMpevj_MP7e8I89YOsK-23" value="iata_code" style="shape=partialRectangle;connectable=0;fillColor=none;top=0;left=0;bottom=0;right=0;align=left;spacingLeft=6;fontStyle=5;overflow=hidden;rounded=1;strokeColor=#909090;fontColor=#1A1A1A;" parent="iyMpevj_MP7e8I89YOsK-21" vertex="1">
          <mxGeometry x="30" width="70" height="30" as="geometry">
            <mxRectangle width="70" height="30" as="alternateBounds" />
          </mxGeometry>
        </mxCell>
        <mxCell id="iyMpevj_MP7e8I89YOsK-24" value="" style="shape=tableRow;horizontal=0;startSize=0;swimlaneHead=0;swimlaneBody=0;fillColor=none;collapsible=0;dropTarget=0;points=[[0,0.5],[1,0.5]];portConstraint=eastwest;top=0;left=0;right=0;bottom=0;rounded=1;strokeColor=#909090;fontColor=#1A1A1A;" parent="iyMpevj_MP7e8I89YOsK-20" vertex="1">
          <mxGeometry y="60" width="100" height="30" as="geometry" />
        </mxCell>
        <mxCell id="iyMpevj_MP7e8I89YOsK-25" value="" style="shape=partialRectangle;connectable=0;fillColor=none;top=0;left=0;bottom=0;right=0;editable=1;overflow=hidden;rounded=1;strokeColor=#909090;fontColor=#1A1A1A;" parent="iyMpevj_MP7e8I89YOsK-24" vertex="1">
          <mxGeometry width="30" height="30" as="geometry">
            <mxRectangle width="30" height="30" as="alternateBounds" />
          </mxGeometry>
        </mxCell>
        <mxCell id="iyMpevj_MP7e8I89YOsK-26" value="name" style="shape=partialRectangle;connectable=0;fillColor=none;top=0;left=0;bottom=0;right=0;align=left;spacingLeft=6;overflow=hidden;rounded=1;strokeColor=#909090;fontColor=#1A1A1A;" parent="iyMpevj_MP7e8I89YOsK-24" vertex="1">
          <mxGeometry x="30" width="70" height="30" as="geometry">
            <mxRectangle width="70" height="30" as="alternateBounds" />
          </mxGeometry>
        </mxCell>
        <mxCell id="iyMpevj_MP7e8I89YOsK-27" value="" style="shape=tableRow;horizontal=0;startSize=0;swimlaneHead=0;swimlaneBody=0;fillColor=none;collapsible=0;dropTarget=0;points=[[0,0.5],[1,0.5]];portConstraint=eastwest;top=0;left=0;right=0;bottom=0;rounded=1;strokeColor=#909090;fontColor=#1A1A1A;" parent="iyMpevj_MP7e8I89YOsK-20" vertex="1">
          <mxGeometry y="90" width="100" height="30" as="geometry" />
        </mxCell>
        <mxCell id="iyMpevj_MP7e8I89YOsK-28" value="" style="shape=partialRectangle;connectable=0;fillColor=none;top=0;left=0;bottom=0;right=0;editable=1;overflow=hidden;rounded=1;strokeColor=#909090;fontColor=#1A1A1A;" parent="iyMpevj_MP7e8I89YOsK-27" vertex="1">
          <mxGeometry width="30" height="30" as="geometry">
            <mxRectangle width="30" height="30" as="alternateBounds" />
          </mxGeometry>
        </mxCell>
        <mxCell id="iyMpevj_MP7e8I89YOsK-29" value="city" style="shape=partialRectangle;connectable=0;fillColor=none;top=0;left=0;bottom=0;right=0;align=left;spacingLeft=6;overflow=hidden;rounded=1;strokeColor=#909090;fontColor=#1A1A1A;" parent="iyMpevj_MP7e8I89YOsK-27" vertex="1">
          <mxGeometry x="30" width="70" height="30" as="geometry">
            <mxRectangle width="70" height="30" as="alternateBounds" />
          </mxGeometry>
        </mxCell>
        <mxCell id="iyMpevj_MP7e8I89YOsK-30" value="Aircraft" style="shape=table;startSize=30;container=1;collapsible=1;childLayout=tableLayout;fixedRows=1;rowLines=0;fontStyle=1;align=center;resizeLast=1;rounded=1;fillColor=#F5AB50;strokeColor=#909090;fontColor=#1A1A1A;" parent="1" vertex="1">
          <mxGeometry x="267.53000000000003" y="926.87" width="146.46999999999989" height="182.13" as="geometry" />
        </mxCell>
        <mxCell id="iyMpevj_MP7e8I89YOsK-31" value="" style="shape=tableRow;horizontal=0;startSize=0;swimlaneHead=0;swimlaneBody=0;fillColor=none;collapsible=0;dropTarget=0;points=[[0,0.5],[1,0.5]];portConstraint=eastwest;top=0;left=0;right=0;bottom=1;rounded=1;strokeColor=#909090;fontColor=#1A1A1A;" parent="iyMpevj_MP7e8I89YOsK-30" vertex="1">
          <mxGeometry y="30" width="146.46999999999989" height="32" as="geometry" />
        </mxCell>
        <mxCell id="iyMpevj_MP7e8I89YOsK-32" value="PK" style="shape=partialRectangle;connectable=0;fillColor=none;top=0;left=0;bottom=0;right=0;fontStyle=1;overflow=hidden;rounded=1;strokeColor=#909090;fontColor=#1A1A1A;" parent="iyMpevj_MP7e8I89YOsK-31" vertex="1">
          <mxGeometry width="45.92833333333343" height="32" as="geometry">
            <mxRectangle width="45.92833333333343" height="32" as="alternateBounds" />
          </mxGeometry>
        </mxCell>
        <mxCell id="iyMpevj_MP7e8I89YOsK-33" value="id" style="shape=partialRectangle;connectable=0;fillColor=none;top=0;left=0;bottom=0;right=0;align=left;spacingLeft=6;fontStyle=5;overflow=hidden;rounded=1;strokeColor=#909090;fontColor=#1A1A1A;" parent="iyMpevj_MP7e8I89YOsK-31" vertex="1">
          <mxGeometry x="45.92833333333343" width="100.54166666666646" height="32" as="geometry">
            <mxRectangle width="100.54166666666646" height="32" as="alternateBounds" />
          </mxGeometry>
        </mxCell>
        <mxCell id="iyMpevj_MP7e8I89YOsK-34" value="" style="shape=tableRow;horizontal=0;startSize=0;swimlaneHead=0;swimlaneBody=0;fillColor=none;collapsible=0;dropTarget=0;points=[[0,0.5],[1,0.5]];portConstraint=eastwest;top=0;left=0;right=0;bottom=0;rounded=1;strokeColor=#909090;fontColor=#1A1A1A;" parent="iyMpevj_MP7e8I89YOsK-30" vertex="1">
          <mxGeometry y="62" width="146.46999999999989" height="30" as="geometry" />
        </mxCell>
        <mxCell id="iyMpevj_MP7e8I89YOsK-35" value="Unique" style="shape=partialRectangle;connectable=0;fillColor=none;top=0;left=0;bottom=0;right=0;editable=1;overflow=hidden;rounded=1;strokeColor=#909090;fontColor=#1A1A1A;fontStyle=1" parent="iyMpevj_MP7e8I89YOsK-34" vertex="1">
          <mxGeometry width="45.92833333333343" height="30" as="geometry">
            <mxRectangle width="45.92833333333343" height="30" as="alternateBounds" />
          </mxGeometry>
        </mxCell>
        <mxCell id="iyMpevj_MP7e8I89YOsK-36" value="reg" style="shape=partialRectangle;connectable=0;fillColor=none;top=0;left=0;bottom=0;right=0;align=left;spacingLeft=6;overflow=hidden;rounded=1;strokeColor=#909090;fontColor=#1A1A1A;" parent="iyMpevj_MP7e8I89YOsK-34" vertex="1">
          <mxGeometry x="45.92833333333343" width="100.54166666666646" height="30" as="geometry">
            <mxRectangle width="100.54166666666646" height="30" as="alternateBounds" />
          </mxGeometry>
        </mxCell>
        <mxCell id="iyMpevj_MP7e8I89YOsK-37" value="" style="shape=tableRow;horizontal=0;startSize=0;swimlaneHead=0;swimlaneBody=0;fillColor=none;collapsible=0;dropTarget=0;points=[[0,0.5],[1,0.5]];portConstraint=eastwest;top=0;left=0;right=0;bottom=0;rounded=1;strokeColor=#909090;fontColor=#1A1A1A;" parent="iyMpevj_MP7e8I89YOsK-30" vertex="1">
          <mxGeometry y="92" width="146.46999999999989" height="30" as="geometry" />
        </mxCell>
        <mxCell id="iyMpevj_MP7e8I89YOsK-38" value="" style="shape=partialRectangle;connectable=0;fillColor=none;top=0;left=0;bottom=0;right=0;editable=1;overflow=hidden;rounded=1;strokeColor=#909090;fontColor=#1A1A1A;" parent="iyMpevj_MP7e8I89YOsK-37" vertex="1">
          <mxGeometry width="45.92833333333343" height="30" as="geometry">
            <mxRectangle width="45.92833333333343" height="30" as="alternateBounds" />
          </mxGeometry>
        </mxCell>
        <mxCell id="iyMpevj_MP7e8I89YOsK-39" value="config" style="shape=partialRectangle;connectable=0;fillColor=none;top=0;left=0;bottom=0;right=0;align=left;spacingLeft=6;overflow=hidden;rounded=1;strokeColor=#909090;fontColor=#1A1A1A;" parent="iyMpevj_MP7e8I89YOsK-37" vertex="1">
          <mxGeometry x="45.92833333333343" width="100.54166666666646" height="30" as="geometry">
            <mxRectangle width="100.54166666666646" height="30" as="alternateBounds" />
          </mxGeometry>
        </mxCell>
        <mxCell id="iyMpevj_MP7e8I89YOsK-40" style="shape=tableRow;horizontal=0;startSize=0;swimlaneHead=0;swimlaneBody=0;fillColor=none;collapsible=0;dropTarget=0;points=[[0,0.5],[1,0.5]];portConstraint=eastwest;top=0;left=0;right=0;bottom=0;rounded=1;strokeColor=#909090;fontColor=#1A1A1A;" parent="iyMpevj_MP7e8I89YOsK-30" vertex="1">
          <mxGeometry y="122" width="146.46999999999989" height="30" as="geometry" />
        </mxCell>
        <mxCell id="iyMpevj_MP7e8I89YOsK-41" value="" style="shape=partialRectangle;connectable=0;fillColor=none;top=0;left=0;bottom=0;right=0;editable=1;overflow=hidden;rounded=1;strokeColor=#909090;fontColor=#1A1A1A;" parent="iyMpevj_MP7e8I89YOsK-40" vertex="1">
          <mxGeometry width="45.92833333333343" height="30" as="geometry">
            <mxRectangle width="45.92833333333343" height="30" as="alternateBounds" />
          </mxGeometry>
        </mxCell>
        <mxCell id="iyMpevj_MP7e8I89YOsK-42" value="type" style="shape=partialRectangle;connectable=0;fillColor=none;top=0;left=0;bottom=0;right=0;align=left;spacingLeft=6;overflow=hidden;rounded=1;strokeColor=#909090;fontColor=#1A1A1A;" parent="iyMpevj_MP7e8I89YOsK-40" vertex="1">
          <mxGeometry x="45.92833333333343" width="100.54166666666646" height="30" as="geometry">
            <mxRectangle width="100.54166666666646" height="30" as="alternateBounds" />
          </mxGeometry>
        </mxCell>
        <mxCell id="iyMpevj_MP7e8I89YOsK-107" style="shape=tableRow;horizontal=0;startSize=0;swimlaneHead=0;swimlaneBody=0;fillColor=none;collapsible=0;dropTarget=0;points=[[0,0.5],[1,0.5]];portConstraint=eastwest;top=0;left=0;right=0;bottom=0;rounded=1;strokeColor=#909090;fontColor=#1A1A1A;" parent="iyMpevj_MP7e8I89YOsK-30" vertex="1">
          <mxGeometry y="152" width="146.46999999999989" height="30" as="geometry" />
        </mxCell>
        <mxCell id="iyMpevj_MP7e8I89YOsK-108" value="" style="shape=partialRectangle;connectable=0;fillColor=none;top=0;left=0;bottom=0;right=0;editable=1;overflow=hidden;rounded=1;strokeColor=#909090;fontColor=#1A1A1A;" parent="iyMpevj_MP7e8I89YOsK-107" vertex="1">
          <mxGeometry width="45.92833333333343" height="30" as="geometry">
            <mxRectangle width="45.92833333333343" height="30" as="alternateBounds" />
          </mxGeometry>
        </mxCell>
        <mxCell id="iyMpevj_MP7e8I89YOsK-109" value="seatmap_file" style="shape=partialRectangle;connectable=0;fillColor=none;top=0;left=0;bottom=0;right=0;align=left;spacingLeft=6;overflow=hidden;rounded=1;strokeColor=#909090;fontColor=#1A1A1A;" parent="iyMpevj_MP7e8I89YOsK-107" vertex="1">
          <mxGeometry x="45.92833333333343" width="100.54166666666646" height="30" as="geometry">
            <mxRectangle width="100.54166666666646" height="30" as="alternateBounds" />
          </mxGeometry>
        </mxCell>
        <mxCell id="iyMpevj_MP7e8I89YOsK-50" value="Flight" style="shape=table;startSize=30;container=1;collapsible=1;childLayout=tableLayout;fixedRows=1;rowLines=0;fontStyle=1;align=center;resizeLast=1;rounded=1;fillColor=#F5AB50;strokeColor=#909090;fontColor=#1A1A1A;" parent="1" vertex="1">
          <mxGeometry x="489" y="659" width="165" height="450" as="geometry" />
        </mxCell>
        <mxCell id="iyMpevj_MP7e8I89YOsK-51" value="" style="shape=tableRow;horizontal=0;startSize=0;swimlaneHead=0;swimlaneBody=0;fillColor=none;collapsible=0;dropTarget=0;points=[[0,0.5],[1,0.5]];portConstraint=eastwest;top=0;left=0;right=0;bottom=1;rounded=1;strokeColor=#909090;fontColor=#1A1A1A;" parent="iyMpevj_MP7e8I89YOsK-50" vertex="1">
          <mxGeometry y="30" width="165" height="30" as="geometry" />
        </mxCell>
        <mxCell id="iyMpevj_MP7e8I89YOsK-52" value="PK,FK" style="shape=partialRectangle;connectable=0;fillColor=none;top=0;left=0;bottom=0;right=0;fontStyle=1;overflow=hidden;rounded=1;strokeColor=#909090;fontColor=#1A1A1A;" parent="iyMpevj_MP7e8I89YOsK-51" vertex="1">
          <mxGeometry width="53.75" height="30" as="geometry">
            <mxRectangle width="53.75" height="30" as="alternateBounds" />
          </mxGeometry>
        </mxCell>
        <mxCell id="iyMpevj_MP7e8I89YOsK-53" value="id" style="shape=partialRectangle;connectable=0;fillColor=none;top=0;left=0;bottom=0;right=0;align=left;spacingLeft=6;fontStyle=5;overflow=hidden;rounded=1;strokeColor=#909090;fontColor=#1A1A1A;" parent="iyMpevj_MP7e8I89YOsK-51" vertex="1">
          <mxGeometry x="53.75" width="111.25" height="30" as="geometry">
            <mxRectangle width="111.25" height="30" as="alternateBounds" />
          </mxGeometry>
        </mxCell>
        <mxCell id="iyMpevj_MP7e8I89YOsK-54" style="shape=tableRow;horizontal=0;startSize=0;swimlaneHead=0;swimlaneBody=0;fillColor=none;collapsible=0;dropTarget=0;points=[[0,0.5],[1,0.5]];portConstraint=eastwest;top=0;left=0;right=0;bottom=0;rounded=1;strokeColor=#909090;fontColor=#1A1A1A;" parent="iyMpevj_MP7e8I89YOsK-50" vertex="1">
          <mxGeometry y="60" width="165" height="30" as="geometry" />
        </mxCell>
        <mxCell id="iyMpevj_MP7e8I89YOsK-55" value="Unique" style="shape=partialRectangle;connectable=0;fillColor=#dae8fc;top=0;left=0;bottom=0;right=0;editable=1;overflow=hidden;rounded=1;strokeColor=#6c8ebf;rowspan=2;colspan=1;fontStyle=1;gradientColor=none;shadow=0;" parent="iyMpevj_MP7e8I89YOsK-54" vertex="1">
          <mxGeometry width="53.75" height="60" as="geometry">
            <mxRectangle width="53.75" height="30" as="alternateBounds" />
          </mxGeometry>
        </mxCell>
        <mxCell id="iyMpevj_MP7e8I89YOsK-56" value="flight_number" style="shape=partialRectangle;connectable=0;fillColor=#dae8fc;top=0;left=0;bottom=0;right=0;align=left;spacingLeft=6;overflow=hidden;rounded=1;strokeColor=#6c8ebf;fontStyle=1;labelBorderColor=none;labelBackgroundColor=none;" parent="iyMpevj_MP7e8I89YOsK-54" vertex="1">
          <mxGeometry x="53.75" width="111.25" height="30" as="geometry">
            <mxRectangle width="111.25" height="30" as="alternateBounds" />
          </mxGeometry>
        </mxCell>
        <mxCell id="iyMpevj_MP7e8I89YOsK-57" style="shape=tableRow;horizontal=0;startSize=0;swimlaneHead=0;swimlaneBody=0;fillColor=none;collapsible=0;dropTarget=0;points=[[0,0.5],[1,0.5]];portConstraint=eastwest;top=0;left=0;right=0;bottom=0;rounded=1;strokeColor=#909090;fontColor=#1A1A1A;" parent="iyMpevj_MP7e8I89YOsK-50" vertex="1">
          <mxGeometry y="90" width="165" height="30" as="geometry" />
        </mxCell>
        <mxCell id="iyMpevj_MP7e8I89YOsK-58" style="shape=partialRectangle;connectable=0;fillColor=none;top=0;left=0;bottom=0;right=0;editable=1;overflow=hidden;rounded=1;strokeColor=#909090;fontColor=#1A1A1A;" parent="iyMpevj_MP7e8I89YOsK-57" vertex="1" visible="0">
          <mxGeometry width="53.75" height="30" as="geometry">
            <mxRectangle width="53.75" height="30" as="alternateBounds" />
          </mxGeometry>
        </mxCell>
        <mxCell id="iyMpevj_MP7e8I89YOsK-59" value="date" style="shape=partialRectangle;connectable=0;fillColor=#dae8fc;top=0;left=0;bottom=0;right=0;align=left;spacingLeft=6;overflow=hidden;rounded=1;strokeColor=#6c8ebf;fontStyle=1" parent="iyMpevj_MP7e8I89YOsK-57" vertex="1">
          <mxGeometry x="53.75" width="111.25" height="30" as="geometry">
            <mxRectangle width="111.25" height="30" as="alternateBounds" />
          </mxGeometry>
        </mxCell>
        <mxCell id="iyMpevj_MP7e8I89YOsK-5" value="" style="shape=tableRow;horizontal=0;startSize=0;swimlaneHead=0;swimlaneBody=0;fillColor=none;collapsible=0;dropTarget=0;points=[[0,0.5],[1,0.5]];portConstraint=eastwest;top=0;left=0;right=0;bottom=0;rounded=1;strokeColor=#909090;fontColor=#1A1A1A;" parent="iyMpevj_MP7e8I89YOsK-50" vertex="1">
          <mxGeometry y="120" width="165" height="30" as="geometry" />
        </mxCell>
        <mxCell id="iyMpevj_MP7e8I89YOsK-6" value="FK" style="shape=partialRectangle;connectable=0;fillColor=none;top=0;left=0;bottom=0;right=0;editable=1;overflow=hidden;rounded=1;strokeColor=#909090;fontColor=#1A1A1A;" parent="iyMpevj_MP7e8I89YOsK-5" vertex="1">
          <mxGeometry width="53.75" height="30" as="geometry">
            <mxRectangle width="53.75" height="30" as="alternateBounds" />
          </mxGeometry>
        </mxCell>
        <mxCell id="iyMpevj_MP7e8I89YOsK-7" value="origin" style="shape=partialRectangle;connectable=0;fillColor=none;top=0;left=0;bottom=0;right=0;align=left;spacingLeft=6;overflow=hidden;rounded=1;strokeColor=#909090;fontColor=#1A1A1A;" parent="iyMpevj_MP7e8I89YOsK-5" vertex="1">
          <mxGeometry x="53.75" width="111.25" height="30" as="geometry">
            <mxRectangle width="111.25" height="30" as="alternateBounds" />
          </mxGeometry>
        </mxCell>
        <mxCell id="iyMpevj_MP7e8I89YOsK-8" value="" style="shape=tableRow;horizontal=0;startSize=0;swimlaneHead=0;swimlaneBody=0;fillColor=none;collapsible=0;dropTarget=0;points=[[0,0.5],[1,0.5]];portConstraint=eastwest;top=0;left=0;right=0;bottom=0;rounded=1;strokeColor=#909090;fontColor=#1A1A1A;" parent="iyMpevj_MP7e8I89YOsK-50" vertex="1">
          <mxGeometry y="150" width="165" height="30" as="geometry" />
        </mxCell>
        <mxCell id="iyMpevj_MP7e8I89YOsK-9" value="FK" style="shape=partialRectangle;connectable=0;fillColor=none;top=0;left=0;bottom=0;right=0;editable=1;overflow=hidden;rounded=1;strokeColor=#909090;fontColor=#1A1A1A;" parent="iyMpevj_MP7e8I89YOsK-8" vertex="1">
          <mxGeometry width="53.75" height="30" as="geometry">
            <mxRectangle width="53.75" height="30" as="alternateBounds" />
          </mxGeometry>
        </mxCell>
        <mxCell id="iyMpevj_MP7e8I89YOsK-10" value="destination" style="shape=partialRectangle;connectable=0;fillColor=none;top=0;left=0;bottom=0;right=0;align=left;spacingLeft=6;overflow=hidden;rounded=1;strokeColor=#909090;fontColor=#1A1A1A;" parent="iyMpevj_MP7e8I89YOsK-8" vertex="1">
          <mxGeometry x="53.75" width="111.25" height="30" as="geometry">
            <mxRectangle width="111.25" height="30" as="alternateBounds" />
          </mxGeometry>
        </mxCell>
        <mxCell id="iyMpevj_MP7e8I89YOsK-11" value="" style="shape=tableRow;horizontal=0;startSize=0;swimlaneHead=0;swimlaneBody=0;fillColor=none;collapsible=0;dropTarget=0;points=[[0,0.5],[1,0.5]];portConstraint=eastwest;top=0;left=0;right=0;bottom=0;rounded=1;strokeColor=#909090;fontColor=#1A1A1A;" parent="iyMpevj_MP7e8I89YOsK-50" vertex="1">
          <mxGeometry y="180" width="165" height="30" as="geometry" />
        </mxCell>
        <mxCell id="iyMpevj_MP7e8I89YOsK-12" value="" style="shape=partialRectangle;connectable=0;fillColor=none;top=0;left=0;bottom=0;right=0;editable=1;overflow=hidden;rounded=1;strokeColor=#909090;fontColor=#1A1A1A;" parent="iyMpevj_MP7e8I89YOsK-11" vertex="1">
          <mxGeometry width="53.75" height="30" as="geometry">
            <mxRectangle width="53.75" height="30" as="alternateBounds" />
          </mxGeometry>
        </mxCell>
        <mxCell id="iyMpevj_MP7e8I89YOsK-13" value="STD (depart time)" style="shape=partialRectangle;connectable=0;fillColor=none;top=0;left=0;bottom=0;right=0;align=left;spacingLeft=6;overflow=hidden;rounded=1;strokeColor=#909090;fontColor=#1A1A1A;" parent="iyMpevj_MP7e8I89YOsK-11" vertex="1">
          <mxGeometry x="53.75" width="111.25" height="30" as="geometry">
            <mxRectangle width="111.25" height="30" as="alternateBounds" />
          </mxGeometry>
        </mxCell>
        <mxCell id="iyMpevj_MP7e8I89YOsK-60" value="" style="shape=tableRow;horizontal=0;startSize=0;swimlaneHead=0;swimlaneBody=0;fillColor=none;collapsible=0;dropTarget=0;points=[[0,0.5],[1,0.5]];portConstraint=eastwest;top=0;left=0;right=0;bottom=0;rounded=1;strokeColor=#909090;fontColor=#1A1A1A;" parent="iyMpevj_MP7e8I89YOsK-50" vertex="1">
          <mxGeometry y="210" width="165" height="30" as="geometry" />
        </mxCell>
        <mxCell id="iyMpevj_MP7e8I89YOsK-61" value="" style="shape=partialRectangle;connectable=0;fillColor=none;top=0;left=0;bottom=0;right=0;editable=1;overflow=hidden;rounded=1;strokeColor=#909090;fontColor=#1A1A1A;" parent="iyMpevj_MP7e8I89YOsK-60" vertex="1">
          <mxGeometry width="53.75" height="30" as="geometry">
            <mxRectangle width="53.75" height="30" as="alternateBounds" />
          </mxGeometry>
        </mxCell>
        <mxCell id="iyMpevj_MP7e8I89YOsK-62" value="ETD" style="shape=partialRectangle;connectable=0;fillColor=none;top=0;left=0;bottom=0;right=0;align=left;spacingLeft=6;overflow=hidden;rounded=1;strokeColor=#909090;fontColor=#1A1A1A;" parent="iyMpevj_MP7e8I89YOsK-60" vertex="1">
          <mxGeometry x="53.75" width="111.25" height="30" as="geometry">
            <mxRectangle width="111.25" height="30" as="alternateBounds" />
          </mxGeometry>
        </mxCell>
        <mxCell id="iyMpevj_MP7e8I89YOsK-14" style="shape=tableRow;horizontal=0;startSize=0;swimlaneHead=0;swimlaneBody=0;fillColor=none;collapsible=0;dropTarget=0;points=[[0,0.5],[1,0.5]];portConstraint=eastwest;top=0;left=0;right=0;bottom=0;rounded=1;strokeColor=#909090;fontColor=#1A1A1A;" parent="iyMpevj_MP7e8I89YOsK-50" vertex="1">
          <mxGeometry y="240" width="165" height="30" as="geometry" />
        </mxCell>
        <mxCell id="iyMpevj_MP7e8I89YOsK-15" style="shape=partialRectangle;connectable=0;fillColor=none;top=0;left=0;bottom=0;right=0;editable=1;overflow=hidden;rounded=1;strokeColor=#909090;fontColor=#1A1A1A;" parent="iyMpevj_MP7e8I89YOsK-14" vertex="1">
          <mxGeometry width="53.75" height="30" as="geometry">
            <mxRectangle width="53.75" height="30" as="alternateBounds" />
          </mxGeometry>
        </mxCell>
        <mxCell id="iyMpevj_MP7e8I89YOsK-16" value="duration" style="shape=partialRectangle;connectable=0;fillColor=none;top=0;left=0;bottom=0;right=0;align=left;spacingLeft=6;overflow=hidden;rounded=1;strokeColor=#909090;fontColor=#1A1A1A;" parent="iyMpevj_MP7e8I89YOsK-14" vertex="1">
          <mxGeometry x="53.75" width="111.25" height="30" as="geometry">
            <mxRectangle width="111.25" height="30" as="alternateBounds" />
          </mxGeometry>
        </mxCell>
        <mxCell id="iyMpevj_MP7e8I89YOsK-63" value="" style="shape=tableRow;horizontal=0;startSize=0;swimlaneHead=0;swimlaneBody=0;fillColor=none;collapsible=0;dropTarget=0;points=[[0,0.5],[1,0.5]];portConstraint=eastwest;top=0;left=0;right=0;bottom=0;rounded=1;strokeColor=#909090;fontColor=#1A1A1A;" parent="iyMpevj_MP7e8I89YOsK-50" vertex="1">
          <mxGeometry y="270" width="165" height="30" as="geometry" />
        </mxCell>
        <mxCell id="iyMpevj_MP7e8I89YOsK-64" value="" style="shape=partialRectangle;connectable=0;fillColor=none;top=0;left=0;bottom=0;right=0;editable=1;overflow=hidden;rounded=1;strokeColor=#909090;fontColor=#1A1A1A;" parent="iyMpevj_MP7e8I89YOsK-63" vertex="1">
          <mxGeometry width="53.75" height="30" as="geometry">
            <mxRectangle width="53.75" height="30" as="alternateBounds" />
          </mxGeometry>
        </mxCell>
        <mxCell id="iyMpevj_MP7e8I89YOsK-65" value="gate" style="shape=partialRectangle;connectable=0;fillColor=none;top=0;left=0;bottom=0;right=0;align=left;spacingLeft=6;overflow=hidden;rounded=1;strokeColor=#909090;fontColor=#1A1A1A;" parent="iyMpevj_MP7e8I89YOsK-63" vertex="1">
          <mxGeometry x="53.75" width="111.25" height="30" as="geometry">
            <mxRectangle width="111.25" height="30" as="alternateBounds" />
          </mxGeometry>
        </mxCell>
        <mxCell id="iyMpevj_MP7e8I89YOsK-66" style="shape=tableRow;horizontal=0;startSize=0;swimlaneHead=0;swimlaneBody=0;fillColor=none;collapsible=0;dropTarget=0;points=[[0,0.5],[1,0.5]];portConstraint=eastwest;top=0;left=0;right=0;bottom=0;rounded=1;strokeColor=#909090;fontColor=#1A1A1A;" parent="iyMpevj_MP7e8I89YOsK-50" vertex="1">
          <mxGeometry y="300" width="165" height="30" as="geometry" />
        </mxCell>
        <mxCell id="iyMpevj_MP7e8I89YOsK-67" style="shape=partialRectangle;connectable=0;fillColor=none;top=0;left=0;bottom=0;right=0;editable=1;overflow=hidden;rounded=1;strokeColor=#909090;fontColor=#1A1A1A;" parent="iyMpevj_MP7e8I89YOsK-66" vertex="1">
          <mxGeometry width="53.75" height="30" as="geometry">
            <mxRectangle width="53.75" height="30" as="alternateBounds" />
          </mxGeometry>
        </mxCell>
        <mxCell id="iyMpevj_MP7e8I89YOsK-68" value="flight_status" style="shape=partialRectangle;connectable=0;fillColor=none;top=0;left=0;bottom=0;right=0;align=left;spacingLeft=6;overflow=hidden;rounded=1;strokeColor=#909090;fontColor=#1A1A1A;" parent="iyMpevj_MP7e8I89YOsK-66" vertex="1">
          <mxGeometry x="53.75" width="111.25" height="30" as="geometry">
            <mxRectangle width="111.25" height="30" as="alternateBounds" />
          </mxGeometry>
        </mxCell>
        <mxCell id="iyMpevj_MP7e8I89YOsK-69" style="shape=tableRow;horizontal=0;startSize=0;swimlaneHead=0;swimlaneBody=0;fillColor=none;collapsible=0;dropTarget=0;points=[[0,0.5],[1,0.5]];portConstraint=eastwest;top=0;left=0;right=0;bottom=0;rounded=1;strokeColor=#909090;fontColor=#1A1A1A;" parent="iyMpevj_MP7e8I89YOsK-50" vertex="1">
          <mxGeometry y="330" width="165" height="30" as="geometry" />
        </mxCell>
        <mxCell id="iyMpevj_MP7e8I89YOsK-70" value="FK" style="shape=partialRectangle;connectable=0;fillColor=none;top=0;left=0;bottom=0;right=0;editable=1;overflow=hidden;rounded=1;strokeColor=#909090;fontColor=#1A1A1A;" parent="iyMpevj_MP7e8I89YOsK-69" vertex="1">
          <mxGeometry width="53.75" height="30" as="geometry">
            <mxRectangle width="53.75" height="30" as="alternateBounds" />
          </mxGeometry>
        </mxCell>
        <mxCell id="iyMpevj_MP7e8I89YOsK-71" value="ac_id" style="shape=partialRectangle;connectable=0;fillColor=none;top=0;left=0;bottom=0;right=0;align=left;spacingLeft=6;overflow=hidden;rounded=1;strokeColor=#909090;fontColor=#1A1A1A;" parent="iyMpevj_MP7e8I89YOsK-69" vertex="1">
          <mxGeometry x="53.75" width="111.25" height="30" as="geometry">
            <mxRectangle width="111.25" height="30" as="alternateBounds" />
          </mxGeometry>
        </mxCell>
        <mxCell id="iyMpevj_MP7e8I89YOsK-72" style="shape=tableRow;horizontal=0;startSize=0;swimlaneHead=0;swimlaneBody=0;fillColor=none;collapsible=0;dropTarget=0;points=[[0,0.5],[1,0.5]];portConstraint=eastwest;top=0;left=0;right=0;bottom=0;rounded=1;strokeColor=#909090;fontColor=#1A1A1A;" parent="iyMpevj_MP7e8I89YOsK-50" vertex="1">
          <mxGeometry y="360" width="165" height="30" as="geometry" />
        </mxCell>
        <mxCell id="iyMpevj_MP7e8I89YOsK-73" style="shape=partialRectangle;connectable=0;fillColor=none;top=0;left=0;bottom=0;right=0;editable=1;overflow=hidden;rounded=1;strokeColor=#909090;fontColor=#1A1A1A;" parent="iyMpevj_MP7e8I89YOsK-72" vertex="1">
          <mxGeometry width="53.75" height="30" as="geometry">
            <mxRectangle width="53.75" height="30" as="alternateBounds" />
          </mxGeometry>
        </mxCell>
        <mxCell id="iyMpevj_MP7e8I89YOsK-74" value="current_seatmap" style="shape=partialRectangle;connectable=0;fillColor=none;top=0;left=0;bottom=0;right=0;align=left;spacingLeft=6;overflow=hidden;rounded=1;strokeColor=#909090;fontColor=#1A1A1A;" parent="iyMpevj_MP7e8I89YOsK-72" vertex="1">
          <mxGeometry x="53.75" width="111.25" height="30" as="geometry">
            <mxRectangle width="111.25" height="30" as="alternateBounds" />
          </mxGeometry>
        </mxCell>
        <mxCell id="iyMpevj_MP7e8I89YOsK-75" style="shape=tableRow;horizontal=0;startSize=0;swimlaneHead=0;swimlaneBody=0;fillColor=none;collapsible=0;dropTarget=0;points=[[0,0.5],[1,0.5]];portConstraint=eastwest;top=0;left=0;right=0;bottom=0;rounded=1;strokeColor=#909090;fontColor=#1A1A1A;" parent="iyMpevj_MP7e8I89YOsK-50" vertex="1">
          <mxGeometry y="390" width="165" height="30" as="geometry" />
        </mxCell>
        <mxCell id="iyMpevj_MP7e8I89YOsK-76" style="shape=partialRectangle;connectable=0;fillColor=none;top=0;left=0;bottom=0;right=0;editable=1;overflow=hidden;rounded=1;strokeColor=#909090;fontColor=#1A1A1A;" parent="iyMpevj_MP7e8I89YOsK-75" vertex="1">
          <mxGeometry width="53.75" height="30" as="geometry">
            <mxRectangle width="53.75" height="30" as="alternateBounds" />
          </mxGeometry>
        </mxCell>
        <mxCell id="iyMpevj_MP7e8I89YOsK-77" value="avai_seat" style="shape=partialRectangle;connectable=0;fillColor=none;top=0;left=0;bottom=0;right=0;align=left;spacingLeft=6;overflow=hidden;rounded=1;strokeColor=#909090;fontColor=#1A1A1A;" parent="iyMpevj_MP7e8I89YOsK-75" vertex="1">
          <mxGeometry x="53.75" width="111.25" height="30" as="geometry">
            <mxRectangle width="111.25" height="30" as="alternateBounds" />
          </mxGeometry>
        </mxCell>
        <mxCell id="iyMpevj_MP7e8I89YOsK-78" style="shape=tableRow;horizontal=0;startSize=0;swimlaneHead=0;swimlaneBody=0;fillColor=none;collapsible=0;dropTarget=0;points=[[0,0.5],[1,0.5]];portConstraint=eastwest;top=0;left=0;right=0;bottom=0;rounded=1;strokeColor=#909090;fontColor=#1A1A1A;" parent="iyMpevj_MP7e8I89YOsK-50" vertex="1">
          <mxGeometry y="420" width="165" height="30" as="geometry" />
        </mxCell>
        <mxCell id="iyMpevj_MP7e8I89YOsK-79" style="shape=partialRectangle;connectable=0;fillColor=none;top=0;left=0;bottom=0;right=0;editable=1;overflow=hidden;rounded=1;strokeColor=#909090;fontColor=#1A1A1A;" parent="iyMpevj_MP7e8I89YOsK-78" vertex="1">
          <mxGeometry width="53.75" height="30" as="geometry">
            <mxRectangle width="53.75" height="30" as="alternateBounds" />
          </mxGeometry>
        </mxCell>
        <mxCell id="iyMpevj_MP7e8I89YOsK-80" value="base_price" style="shape=partialRectangle;connectable=0;fillColor=none;top=0;left=0;bottom=0;right=0;align=left;spacingLeft=6;overflow=hidden;rounded=1;strokeColor=#909090;fontColor=#1A1A1A;" parent="iyMpevj_MP7e8I89YOsK-78" vertex="1">
          <mxGeometry x="53.75" width="111.25" height="30" as="geometry">
            <mxRectangle width="111.25" height="30" as="alternateBounds" />
          </mxGeometry>
        </mxCell>
        <mxCell id="iyMpevj_MP7e8I89YOsK-83" style="edgeStyle=orthogonalEdgeStyle;rounded=1;orthogonalLoop=1;jettySize=auto;html=1;exitX=1;exitY=0.5;exitDx=0;exitDy=0;entryX=0;entryY=0.5;entryDx=0;entryDy=0;endArrow=ERoneToMany;endFill=0;curved=1;labelBackgroundColor=#EEEEEE;strokeColor=#182E3E;fontColor=#1A1A1A;" parent="1" source="iyMpevj_MP7e8I89YOsK-21" target="iyMpevj_MP7e8I89YOsK-5" edge="1">
          <mxGeometry relative="1" as="geometry">
            <mxPoint x="849.53" y="457.5" as="sourcePoint" />
          </mxGeometry>
        </mxCell>
        <mxCell id="iyMpevj_MP7e8I89YOsK-84" style="edgeStyle=orthogonalEdgeStyle;rounded=1;orthogonalLoop=1;jettySize=auto;html=1;entryX=0;entryY=0.5;entryDx=0;entryDy=0;endArrow=ERoneToMany;endFill=0;curved=1;labelBackgroundColor=#EEEEEE;strokeColor=#182E3E;fontColor=#1A1A1A;" parent="1" source="iyMpevj_MP7e8I89YOsK-21" target="iyMpevj_MP7e8I89YOsK-8" edge="1">
          <mxGeometry relative="1" as="geometry" />
        </mxCell>
        <mxCell id="m_qHvcdBIBMN6GDrg9AH-50" style="edgeStyle=orthogonalEdgeStyle;rounded=0;orthogonalLoop=1;jettySize=auto;html=1;exitX=1;exitY=0.5;exitDx=0;exitDy=0;entryX=0;entryY=0.5;entryDx=0;entryDy=0;curved=1;startArrow=ERone;startFill=0;endArrow=ERoneToMany;endFill=0;" parent="1" source="iyMpevj_MP7e8I89YOsK-51" target="whcrbTPLuVQ6Jo3Zv46X-14" edge="1">
          <mxGeometry relative="1" as="geometry">
            <mxPoint x="792" y="614" as="targetPoint" />
          </mxGeometry>
        </mxCell>
        <mxCell id="m_qHvcdBIBMN6GDrg9AH-66" style="edgeStyle=orthogonalEdgeStyle;rounded=0;orthogonalLoop=1;jettySize=auto;html=1;exitX=1;exitY=0.5;exitDx=0;exitDy=0;entryX=0;entryY=0.5;entryDx=0;entryDy=0;curved=1;startArrow=ERone;startFill=0;endArrow=ERzeroToMany;endFill=0;" parent="1" source="iyMpevj_MP7e8I89YOsK-31" target="iyMpevj_MP7e8I89YOsK-69" edge="1">
          <mxGeometry relative="1" as="geometry" />
        </mxCell>
        <mxCell id="3LVnEx2exZ5WeWYf2_2s-2" value="&lt;h1&gt;Payment service&lt;/h1&gt;&lt;p&gt;&lt;font color=&quot;#0000ff&quot;&gt;/api/payment/checkPayment/{bookingId}&lt;br&gt;/api/payment/&lt;/font&gt;&lt;/p&gt;" style="text;html=1;strokeColor=none;fillColor=none;spacing=5;spacingTop=-20;whiteSpace=wrap;overflow=hidden;rounded=0;" parent="1" vertex="1">
          <mxGeometry x="804" y="37" width="297" height="140" as="geometry" />
        </mxCell>
        <mxCell id="3LVnEx2exZ5WeWYf2_2s-3" value="&lt;h1&gt;Flight service&lt;/h1&gt;&lt;p&gt;&lt;font color=&quot;#0000ff&quot;&gt;/api/flight/flights?origin={origin}&amp;amp;dest={dest}&amp;amp;date={date}&lt;br&gt;/api/flight/flight/{flightId}&lt;span style=&quot;white-space: pre;&quot;&gt; &lt;/span&gt;-- get flight by id&lt;br&gt;/api/flight/add&lt;br&gt;&lt;br&gt;/api/flight/airports/&lt;span style=&quot;white-space: pre;&quot;&gt; &lt;/span&gt;&lt;span style=&quot;white-space: pre;&quot;&gt; &lt;/span&gt;-- homepage: load all destinations&lt;br&gt;&lt;br&gt;&lt;/font&gt;&lt;/p&gt;" style="text;html=1;strokeColor=none;fillColor=none;spacing=5;spacingTop=-20;whiteSpace=wrap;overflow=hidden;rounded=0;" parent="1" vertex="1">
          <mxGeometry x="70.88" y="160" width="339" height="140" as="geometry" />
        </mxCell>
        <mxCell id="3LVnEx2exZ5WeWYf2_2s-6" value="&lt;h1&gt;Booking service&lt;/h1&gt;&lt;p&gt;&lt;font color=&quot;#0000ff&quot;&gt;/api/booking/{pnr}&lt;span style=&quot;white-space: pre;&quot;&gt; &lt;/span&gt;&lt;span style=&quot;white-space: pre;&quot;&gt; &lt;/span&gt;&lt;span style=&quot;white-space: pre;&quot;&gt; &lt;/span&gt;&lt;span style=&quot;white-space: pre;&quot;&gt; &lt;/span&gt;&lt;span style=&quot;white-space: pre;&quot;&gt; &lt;/span&gt;-- search booking by PNR&lt;br&gt;/api/booking/addBooking&lt;span style=&quot;white-space: pre;&quot;&gt; &lt;/span&gt;&lt;span style=&quot;white-space: pre;&quot;&gt; &lt;/span&gt;&lt;span style=&quot;white-space: pre;&quot;&gt; &lt;/span&gt;&lt;span style=&quot;white-space: pre;&quot;&gt; &lt;/span&gt;-- book a ticket&lt;br&gt;/api/booking/updateBooking (ckin)&lt;span style=&quot;white-space: pre;&quot;&gt; &lt;/span&gt;&lt;span style=&quot;white-space: pre;&quot;&gt; &lt;/span&gt;-- checkin || uncheckin&lt;/font&gt;&lt;/p&gt;" style="text;html=1;strokeColor=none;fillColor=none;spacing=5;spacingTop=-20;whiteSpace=wrap;overflow=hidden;rounded=0;" parent="1" vertex="1">
          <mxGeometry x="441" y="160" width="426" height="140" as="geometry" />
        </mxCell>
        <mxCell id="3LVnEx2exZ5WeWYf2_2s-9" value="&lt;h1&gt;Email service&lt;/h1&gt;&lt;p&gt;&lt;font color=&quot;#0000ff&quot;&gt;/api/email/sendEmail&lt;/font&gt;&lt;/p&gt;" style="text;html=1;strokeColor=none;fillColor=none;spacing=5;spacingTop=-20;whiteSpace=wrap;overflow=hidden;rounded=0;" parent="1" vertex="1">
          <mxGeometry x="809" y="160" width="297" height="83" as="geometry" />
        </mxCell>
        <mxCell id="3LVnEx2exZ5WeWYf2_2s-11" value="&lt;h1&gt;Admin service&lt;/h1&gt;&lt;p&gt;&lt;font color=&quot;#0000ff&quot;&gt;/api/payment/checkPayment/{bookingId}&lt;br&gt;/api/payment/&lt;/font&gt;&lt;/p&gt;" style="text;html=1;strokeColor=none;fillColor=none;spacing=5;spacingTop=-20;whiteSpace=wrap;overflow=hidden;rounded=0;" parent="1" vertex="1">
          <mxGeometry x="78" y="37" width="297" height="140" as="geometry" />
        </mxCell>
        <mxCell id="3LVnEx2exZ5WeWYf2_2s-13" value="&lt;h1&gt;Member service&lt;/h1&gt;&lt;p&gt;&lt;font color=&quot;#0000ff&quot;&gt;/api/member/&lt;br&gt;/api/member/&lt;/font&gt;&lt;/p&gt;" style="text;html=1;strokeColor=none;fillColor=none;spacing=5;spacingTop=-20;whiteSpace=wrap;overflow=hidden;rounded=0;" parent="1" vertex="1">
          <mxGeometry x="441" y="37" width="297" height="140" as="geometry" />
        </mxCell>
        <mxCell id="whcrbTPLuVQ6Jo3Zv46X-4" value="Booking" style="shape=table;startSize=30;container=1;collapsible=1;childLayout=tableLayout;fixedRows=1;rowLines=0;fontStyle=1;align=center;resizeLast=1;rounded=1;fillColor=#F5AB50;strokeColor=#909090;fontColor=#1A1A1A;" vertex="1" parent="1">
          <mxGeometry x="747" y="539" width="166.75" height="510" as="geometry">
            <mxRectangle x="360" y="570" width="70" height="30" as="alternateBounds" />
          </mxGeometry>
        </mxCell>
        <mxCell id="whcrbTPLuVQ6Jo3Zv46X-5" value="" style="shape=tableRow;horizontal=0;startSize=0;swimlaneHead=0;swimlaneBody=0;fillColor=none;collapsible=0;dropTarget=0;points=[[0,0.5],[1,0.5]];portConstraint=eastwest;top=0;left=0;right=0;bottom=1;rounded=1;strokeColor=#909090;fontColor=#1A1A1A;" vertex="1" parent="whcrbTPLuVQ6Jo3Zv46X-4">
          <mxGeometry y="30" width="166.75" height="30" as="geometry" />
        </mxCell>
        <mxCell id="whcrbTPLuVQ6Jo3Zv46X-6" value="PK, FK" style="shape=partialRectangle;connectable=0;fillColor=none;top=0;left=0;bottom=0;right=0;fontStyle=1;overflow=hidden;rounded=1;strokeColor=#909090;fontColor=#1A1A1A;" vertex="1" parent="whcrbTPLuVQ6Jo3Zv46X-5">
          <mxGeometry width="50" height="30" as="geometry">
            <mxRectangle width="50" height="30" as="alternateBounds" />
          </mxGeometry>
        </mxCell>
        <mxCell id="whcrbTPLuVQ6Jo3Zv46X-7" value="id " style="shape=partialRectangle;connectable=0;fillColor=none;top=0;left=0;bottom=0;right=0;align=left;spacingLeft=6;fontStyle=5;overflow=hidden;rounded=1;strokeColor=#909090;fontColor=#1A1A1A;" vertex="1" parent="whcrbTPLuVQ6Jo3Zv46X-5">
          <mxGeometry x="50" width="116.75" height="30" as="geometry">
            <mxRectangle width="116.75" height="30" as="alternateBounds" />
          </mxGeometry>
        </mxCell>
        <mxCell id="whcrbTPLuVQ6Jo3Zv46X-8" style="shape=tableRow;horizontal=0;startSize=0;swimlaneHead=0;swimlaneBody=0;fillColor=none;collapsible=0;dropTarget=0;points=[[0,0.5],[1,0.5]];portConstraint=eastwest;top=0;left=0;right=0;bottom=0;rounded=1;strokeColor=#909090;fontColor=#1A1A1A;" vertex="1" parent="whcrbTPLuVQ6Jo3Zv46X-4">
          <mxGeometry y="60" width="166.75" height="30" as="geometry" />
        </mxCell>
        <mxCell id="whcrbTPLuVQ6Jo3Zv46X-9" value="Unique" style="shape=partialRectangle;connectable=0;fillColor=none;top=0;left=0;bottom=0;right=0;editable=1;overflow=hidden;rounded=1;strokeColor=#909090;fontColor=#1A1A1A;fontStyle=1" vertex="1" parent="whcrbTPLuVQ6Jo3Zv46X-8">
          <mxGeometry width="50" height="30" as="geometry">
            <mxRectangle width="50" height="30" as="alternateBounds" />
          </mxGeometry>
        </mxCell>
        <mxCell id="whcrbTPLuVQ6Jo3Zv46X-10" value="PNR varchar(6)" style="shape=partialRectangle;connectable=0;fillColor=none;top=0;left=0;bottom=0;right=0;align=left;spacingLeft=6;overflow=hidden;rounded=1;strokeColor=#909090;fontColor=#1A1A1A;shadow=0;sketch=0;labelBorderColor=none;labelBackgroundColor=none;fontStyle=1" vertex="1" parent="whcrbTPLuVQ6Jo3Zv46X-8">
          <mxGeometry x="50" width="116.75" height="30" as="geometry">
            <mxRectangle width="116.75" height="30" as="alternateBounds" />
          </mxGeometry>
        </mxCell>
        <mxCell id="whcrbTPLuVQ6Jo3Zv46X-11" value="" style="shape=tableRow;horizontal=0;startSize=0;swimlaneHead=0;swimlaneBody=0;fillColor=none;collapsible=0;dropTarget=0;points=[[0,0.5],[1,0.5]];portConstraint=eastwest;top=0;left=0;right=0;bottom=0;rounded=1;strokeColor=#909090;fontColor=#1A1A1A;" vertex="1" parent="whcrbTPLuVQ6Jo3Zv46X-4">
          <mxGeometry y="90" width="166.75" height="30" as="geometry" />
        </mxCell>
        <mxCell id="whcrbTPLuVQ6Jo3Zv46X-12" value="" style="shape=partialRectangle;connectable=0;fillColor=none;top=0;left=0;bottom=0;right=0;editable=1;overflow=hidden;rounded=1;strokeColor=#909090;fontColor=#1A1A1A;" vertex="1" parent="whcrbTPLuVQ6Jo3Zv46X-11">
          <mxGeometry width="50" height="30" as="geometry">
            <mxRectangle width="50" height="30" as="alternateBounds" />
          </mxGeometry>
        </mxCell>
        <mxCell id="whcrbTPLuVQ6Jo3Zv46X-13" value="book_date" style="shape=partialRectangle;connectable=0;fillColor=none;top=0;left=0;bottom=0;right=0;align=left;spacingLeft=6;overflow=hidden;rounded=1;strokeColor=#909090;fontColor=#1A1A1A;shadow=0;sketch=0;labelBorderColor=none;labelBackgroundColor=none;fontStyle=0" vertex="1" parent="whcrbTPLuVQ6Jo3Zv46X-11">
          <mxGeometry x="50" width="116.75" height="30" as="geometry">
            <mxRectangle width="116.75" height="30" as="alternateBounds" />
          </mxGeometry>
        </mxCell>
        <mxCell id="whcrbTPLuVQ6Jo3Zv46X-14" value="" style="shape=tableRow;horizontal=0;startSize=0;swimlaneHead=0;swimlaneBody=0;fillColor=none;collapsible=0;dropTarget=0;points=[[0,0.5],[1,0.5]];portConstraint=eastwest;top=0;left=0;right=0;bottom=0;rounded=1;strokeColor=#909090;fontColor=#1A1A1A;" vertex="1" parent="whcrbTPLuVQ6Jo3Zv46X-4">
          <mxGeometry y="120" width="166.75" height="30" as="geometry" />
        </mxCell>
        <mxCell id="whcrbTPLuVQ6Jo3Zv46X-15" value="FK" style="shape=partialRectangle;connectable=0;fillColor=none;top=0;left=0;bottom=0;right=0;editable=1;overflow=hidden;rounded=1;strokeColor=#909090;fontColor=#1A1A1A;" vertex="1" parent="whcrbTPLuVQ6Jo3Zv46X-14">
          <mxGeometry width="50" height="30" as="geometry">
            <mxRectangle width="50" height="30" as="alternateBounds" />
          </mxGeometry>
        </mxCell>
        <mxCell id="whcrbTPLuVQ6Jo3Zv46X-16" value="flight_id" style="shape=partialRectangle;connectable=0;fillColor=#d5e8d4;top=0;left=0;bottom=0;right=0;align=left;spacingLeft=6;overflow=hidden;fontStyle=1;strokeColor=#82b366;rounded=1;shadow=0;sketch=0;labelBorderColor=none;labelBackgroundColor=none;" vertex="1" parent="whcrbTPLuVQ6Jo3Zv46X-14">
          <mxGeometry x="50" width="116.75" height="30" as="geometry">
            <mxRectangle width="116.75" height="30" as="alternateBounds" />
          </mxGeometry>
        </mxCell>
        <mxCell id="whcrbTPLuVQ6Jo3Zv46X-41" style="shape=tableRow;horizontal=0;startSize=0;swimlaneHead=0;swimlaneBody=0;fillColor=none;collapsible=0;dropTarget=0;points=[[0,0.5],[1,0.5]];portConstraint=eastwest;top=0;left=0;right=0;bottom=0;rounded=1;strokeColor=#909090;fontColor=#1A1A1A;" vertex="1" parent="whcrbTPLuVQ6Jo3Zv46X-4">
          <mxGeometry y="150" width="166.75" height="30" as="geometry" />
        </mxCell>
        <mxCell id="whcrbTPLuVQ6Jo3Zv46X-42" style="shape=partialRectangle;connectable=0;fillColor=none;top=0;left=0;bottom=0;right=0;editable=1;overflow=hidden;rounded=1;strokeColor=#909090;fontColor=#1A1A1A;" vertex="1" parent="whcrbTPLuVQ6Jo3Zv46X-41">
          <mxGeometry width="50" height="30" as="geometry">
            <mxRectangle width="50" height="30" as="alternateBounds" />
          </mxGeometry>
        </mxCell>
        <mxCell id="whcrbTPLuVQ6Jo3Zv46X-43" value="status" style="shape=partialRectangle;connectable=0;fillColor=none;top=0;left=0;bottom=0;right=0;align=left;spacingLeft=6;overflow=hidden;rounded=1;strokeColor=#909090;fontColor=#1A1A1A;shadow=0;sketch=0;labelBorderColor=none;labelBackgroundColor=none;fontStyle=0" vertex="1" parent="whcrbTPLuVQ6Jo3Zv46X-41">
          <mxGeometry x="50" width="116.75" height="30" as="geometry">
            <mxRectangle width="116.75" height="30" as="alternateBounds" />
          </mxGeometry>
        </mxCell>
        <mxCell id="whcrbTPLuVQ6Jo3Zv46X-20" style="shape=tableRow;horizontal=0;startSize=0;swimlaneHead=0;swimlaneBody=0;fillColor=none;collapsible=0;dropTarget=0;points=[[0,0.5],[1,0.5]];portConstraint=eastwest;top=0;left=0;right=0;bottom=0;rounded=1;strokeColor=#909090;fontColor=#1A1A1A;" vertex="1" parent="whcrbTPLuVQ6Jo3Zv46X-4">
          <mxGeometry y="180" width="166.75" height="30" as="geometry" />
        </mxCell>
        <mxCell id="whcrbTPLuVQ6Jo3Zv46X-21" style="shape=partialRectangle;connectable=0;fillColor=none;top=0;left=0;bottom=0;right=0;editable=1;overflow=hidden;rounded=1;strokeColor=#909090;fontColor=#1A1A1A;" vertex="1" parent="whcrbTPLuVQ6Jo3Zv46X-20">
          <mxGeometry width="50" height="30" as="geometry">
            <mxRectangle width="50" height="30" as="alternateBounds" />
          </mxGeometry>
        </mxCell>
        <mxCell id="whcrbTPLuVQ6Jo3Zv46X-22" value="title" style="shape=partialRectangle;connectable=0;fillColor=none;top=0;left=0;bottom=0;right=0;align=left;spacingLeft=6;overflow=hidden;rounded=1;strokeColor=#909090;fontColor=#1A1A1A;shadow=0;sketch=0;labelBorderColor=none;labelBackgroundColor=none;fontStyle=0" vertex="1" parent="whcrbTPLuVQ6Jo3Zv46X-20">
          <mxGeometry x="50" width="116.75" height="30" as="geometry">
            <mxRectangle width="116.75" height="30" as="alternateBounds" />
          </mxGeometry>
        </mxCell>
        <mxCell id="whcrbTPLuVQ6Jo3Zv46X-23" style="shape=tableRow;horizontal=0;startSize=0;swimlaneHead=0;swimlaneBody=0;fillColor=none;collapsible=0;dropTarget=0;points=[[0,0.5],[1,0.5]];portConstraint=eastwest;top=0;left=0;right=0;bottom=0;rounded=1;strokeColor=#909090;fontColor=#1A1A1A;" vertex="1" parent="whcrbTPLuVQ6Jo3Zv46X-4">
          <mxGeometry y="210" width="166.75" height="30" as="geometry" />
        </mxCell>
        <mxCell id="whcrbTPLuVQ6Jo3Zv46X-24" style="shape=partialRectangle;connectable=0;fillColor=none;top=0;left=0;bottom=0;right=0;editable=1;overflow=hidden;rounded=1;strokeColor=#909090;fontColor=#1A1A1A;" vertex="1" parent="whcrbTPLuVQ6Jo3Zv46X-23">
          <mxGeometry width="50" height="30" as="geometry">
            <mxRectangle width="50" height="30" as="alternateBounds" />
          </mxGeometry>
        </mxCell>
        <mxCell id="whcrbTPLuVQ6Jo3Zv46X-25" value="first_name" style="shape=partialRectangle;connectable=0;fillColor=none;top=0;left=0;bottom=0;right=0;align=left;spacingLeft=6;overflow=hidden;rounded=1;strokeColor=#909090;fontColor=#1A1A1A;shadow=0;sketch=0;labelBorderColor=none;labelBackgroundColor=none;fontStyle=0" vertex="1" parent="whcrbTPLuVQ6Jo3Zv46X-23">
          <mxGeometry x="50" width="116.75" height="30" as="geometry">
            <mxRectangle width="116.75" height="30" as="alternateBounds" />
          </mxGeometry>
        </mxCell>
        <mxCell id="whcrbTPLuVQ6Jo3Zv46X-26" style="shape=tableRow;horizontal=0;startSize=0;swimlaneHead=0;swimlaneBody=0;fillColor=none;collapsible=0;dropTarget=0;points=[[0,0.5],[1,0.5]];portConstraint=eastwest;top=0;left=0;right=0;bottom=0;rounded=1;strokeColor=#909090;fontColor=#1A1A1A;" vertex="1" parent="whcrbTPLuVQ6Jo3Zv46X-4">
          <mxGeometry y="240" width="166.75" height="30" as="geometry" />
        </mxCell>
        <mxCell id="whcrbTPLuVQ6Jo3Zv46X-27" style="shape=partialRectangle;connectable=0;fillColor=none;top=0;left=0;bottom=0;right=0;editable=1;overflow=hidden;rounded=1;strokeColor=#909090;fontColor=#1A1A1A;" vertex="1" parent="whcrbTPLuVQ6Jo3Zv46X-26">
          <mxGeometry width="50" height="30" as="geometry">
            <mxRectangle width="50" height="30" as="alternateBounds" />
          </mxGeometry>
        </mxCell>
        <mxCell id="whcrbTPLuVQ6Jo3Zv46X-28" value="last_name" style="shape=partialRectangle;connectable=0;fillColor=none;top=0;left=0;bottom=0;right=0;align=left;spacingLeft=6;overflow=hidden;rounded=1;strokeColor=#909090;fontColor=#1A1A1A;shadow=0;sketch=0;labelBorderColor=none;labelBackgroundColor=none;fontStyle=0" vertex="1" parent="whcrbTPLuVQ6Jo3Zv46X-26">
          <mxGeometry x="50" width="116.75" height="30" as="geometry">
            <mxRectangle width="116.75" height="30" as="alternateBounds" />
          </mxGeometry>
        </mxCell>
        <mxCell id="whcrbTPLuVQ6Jo3Zv46X-32" style="shape=tableRow;horizontal=0;startSize=0;swimlaneHead=0;swimlaneBody=0;fillColor=none;collapsible=0;dropTarget=0;points=[[0,0.5],[1,0.5]];portConstraint=eastwest;top=0;left=0;right=0;bottom=0;rounded=1;strokeColor=#909090;fontColor=#1A1A1A;fontStyle=1" vertex="1" parent="whcrbTPLuVQ6Jo3Zv46X-4">
          <mxGeometry y="270" width="166.75" height="30" as="geometry" />
        </mxCell>
        <mxCell id="whcrbTPLuVQ6Jo3Zv46X-33" value="FK" style="shape=partialRectangle;connectable=0;fillColor=none;top=0;left=0;bottom=0;right=0;editable=1;overflow=hidden;rounded=1;strokeColor=#909090;fontColor=#1A1A1A;" vertex="1" parent="whcrbTPLuVQ6Jo3Zv46X-32">
          <mxGeometry width="50" height="30" as="geometry">
            <mxRectangle width="50" height="30" as="alternateBounds" />
          </mxGeometry>
        </mxCell>
        <mxCell id="whcrbTPLuVQ6Jo3Zv46X-34" value="infant_id" style="shape=partialRectangle;connectable=0;fillColor=none;top=0;left=0;bottom=0;right=0;align=left;spacingLeft=6;overflow=hidden;rounded=1;strokeColor=#909090;fontColor=#1A1A1A;shadow=0;sketch=0;labelBorderColor=none;labelBackgroundColor=none;fontStyle=0" vertex="1" parent="whcrbTPLuVQ6Jo3Zv46X-32">
          <mxGeometry x="50" width="116.75" height="30" as="geometry">
            <mxRectangle width="116.75" height="30" as="alternateBounds" />
          </mxGeometry>
        </mxCell>
        <mxCell id="whcrbTPLuVQ6Jo3Zv46X-29" style="shape=tableRow;horizontal=0;startSize=0;swimlaneHead=0;swimlaneBody=0;fillColor=none;collapsible=0;dropTarget=0;points=[[0,0.5],[1,0.5]];portConstraint=eastwest;top=0;left=0;right=0;bottom=0;rounded=1;strokeColor=#909090;fontColor=#1A1A1A;" vertex="1" parent="whcrbTPLuVQ6Jo3Zv46X-4">
          <mxGeometry y="300" width="166.75" height="30" as="geometry" />
        </mxCell>
        <mxCell id="whcrbTPLuVQ6Jo3Zv46X-30" style="shape=partialRectangle;connectable=0;fillColor=none;top=0;left=0;bottom=0;right=0;editable=1;overflow=hidden;rounded=1;strokeColor=#909090;fontColor=#1A1A1A;" vertex="1" parent="whcrbTPLuVQ6Jo3Zv46X-29">
          <mxGeometry width="50" height="30" as="geometry">
            <mxRectangle width="50" height="30" as="alternateBounds" />
          </mxGeometry>
        </mxCell>
        <mxCell id="whcrbTPLuVQ6Jo3Zv46X-31" value="gender" style="shape=partialRectangle;connectable=0;fillColor=none;top=0;left=0;bottom=0;right=0;align=left;spacingLeft=6;overflow=hidden;rounded=1;strokeColor=#909090;fontColor=#1A1A1A;shadow=0;sketch=0;labelBorderColor=none;labelBackgroundColor=none;fontStyle=0" vertex="1" parent="whcrbTPLuVQ6Jo3Zv46X-29">
          <mxGeometry x="50" width="116.75" height="30" as="geometry">
            <mxRectangle width="116.75" height="30" as="alternateBounds" />
          </mxGeometry>
        </mxCell>
        <mxCell id="whcrbTPLuVQ6Jo3Zv46X-53" style="shape=tableRow;horizontal=0;startSize=0;swimlaneHead=0;swimlaneBody=0;fillColor=none;collapsible=0;dropTarget=0;points=[[0,0.5],[1,0.5]];portConstraint=eastwest;top=0;left=0;right=0;bottom=0;rounded=1;strokeColor=#909090;fontColor=#1A1A1A;" vertex="1" parent="whcrbTPLuVQ6Jo3Zv46X-4">
          <mxGeometry y="330" width="166.75" height="30" as="geometry" />
        </mxCell>
        <mxCell id="whcrbTPLuVQ6Jo3Zv46X-54" style="shape=partialRectangle;connectable=0;fillColor=none;top=0;left=0;bottom=0;right=0;editable=1;overflow=hidden;rounded=1;strokeColor=#909090;fontColor=#1A1A1A;" vertex="1" parent="whcrbTPLuVQ6Jo3Zv46X-53">
          <mxGeometry width="50" height="30" as="geometry">
            <mxRectangle width="50" height="30" as="alternateBounds" />
          </mxGeometry>
        </mxCell>
        <mxCell id="whcrbTPLuVQ6Jo3Zv46X-55" value="seq" style="shape=partialRectangle;connectable=0;fillColor=none;top=0;left=0;bottom=0;right=0;align=left;spacingLeft=6;overflow=hidden;rounded=1;strokeColor=#909090;fontColor=#1A1A1A;shadow=0;sketch=0;labelBorderColor=none;labelBackgroundColor=none;fontStyle=0" vertex="1" parent="whcrbTPLuVQ6Jo3Zv46X-53">
          <mxGeometry x="50" width="116.75" height="30" as="geometry">
            <mxRectangle width="116.75" height="30" as="alternateBounds" />
          </mxGeometry>
        </mxCell>
        <mxCell id="whcrbTPLuVQ6Jo3Zv46X-35" style="shape=tableRow;horizontal=0;startSize=0;swimlaneHead=0;swimlaneBody=0;fillColor=none;collapsible=0;dropTarget=0;points=[[0,0.5],[1,0.5]];portConstraint=eastwest;top=0;left=0;right=0;bottom=0;rounded=1;strokeColor=#909090;fontColor=#1A1A1A;" vertex="1" parent="whcrbTPLuVQ6Jo3Zv46X-4">
          <mxGeometry y="360" width="166.75" height="30" as="geometry" />
        </mxCell>
        <mxCell id="whcrbTPLuVQ6Jo3Zv46X-36" style="shape=partialRectangle;connectable=0;fillColor=none;top=0;left=0;bottom=0;right=0;editable=1;overflow=hidden;rounded=1;strokeColor=#909090;fontColor=#1A1A1A;" vertex="1" parent="whcrbTPLuVQ6Jo3Zv46X-35">
          <mxGeometry width="50" height="30" as="geometry">
            <mxRectangle width="50" height="30" as="alternateBounds" />
          </mxGeometry>
        </mxCell>
        <mxCell id="whcrbTPLuVQ6Jo3Zv46X-37" value="seat_no" style="shape=partialRectangle;connectable=0;fillColor=none;top=0;left=0;bottom=0;right=0;align=left;spacingLeft=6;overflow=hidden;rounded=1;strokeColor=#909090;fontColor=#1A1A1A;shadow=0;sketch=0;labelBorderColor=none;labelBackgroundColor=none;fontStyle=0" vertex="1" parent="whcrbTPLuVQ6Jo3Zv46X-35">
          <mxGeometry x="50" width="116.75" height="30" as="geometry">
            <mxRectangle width="116.75" height="30" as="alternateBounds" />
          </mxGeometry>
        </mxCell>
        <mxCell id="whcrbTPLuVQ6Jo3Zv46X-38" style="shape=tableRow;horizontal=0;startSize=0;swimlaneHead=0;swimlaneBody=0;fillColor=none;collapsible=0;dropTarget=0;points=[[0,0.5],[1,0.5]];portConstraint=eastwest;top=0;left=0;right=0;bottom=0;rounded=1;strokeColor=#909090;fontColor=#1A1A1A;" vertex="1" parent="whcrbTPLuVQ6Jo3Zv46X-4">
          <mxGeometry y="390" width="166.75" height="30" as="geometry" />
        </mxCell>
        <mxCell id="whcrbTPLuVQ6Jo3Zv46X-39" style="shape=partialRectangle;connectable=0;fillColor=none;top=0;left=0;bottom=0;right=0;editable=1;overflow=hidden;rounded=1;strokeColor=#909090;fontColor=#1A1A1A;" vertex="1" parent="whcrbTPLuVQ6Jo3Zv46X-38">
          <mxGeometry width="50" height="30" as="geometry">
            <mxRectangle width="50" height="30" as="alternateBounds" />
          </mxGeometry>
        </mxCell>
        <mxCell id="whcrbTPLuVQ6Jo3Zv46X-40" value="boarding_pass" style="shape=partialRectangle;connectable=0;fillColor=none;top=0;left=0;bottom=0;right=0;align=left;spacingLeft=6;overflow=hidden;rounded=1;strokeColor=#909090;fontColor=#1A1A1A;shadow=0;sketch=0;labelBorderColor=none;labelBackgroundColor=none;fontStyle=0" vertex="1" parent="whcrbTPLuVQ6Jo3Zv46X-38">
          <mxGeometry x="50" width="116.75" height="30" as="geometry">
            <mxRectangle width="116.75" height="30" as="alternateBounds" />
          </mxGeometry>
        </mxCell>
        <mxCell id="whcrbTPLuVQ6Jo3Zv46X-17" style="shape=tableRow;horizontal=0;startSize=0;swimlaneHead=0;swimlaneBody=0;fillColor=none;collapsible=0;dropTarget=0;points=[[0,0.5],[1,0.5]];portConstraint=eastwest;top=0;left=0;right=0;bottom=0;rounded=1;strokeColor=#909090;fontColor=#1A1A1A;" vertex="1" parent="whcrbTPLuVQ6Jo3Zv46X-4">
          <mxGeometry y="420" width="166.75" height="30" as="geometry" />
        </mxCell>
        <mxCell id="whcrbTPLuVQ6Jo3Zv46X-18" value="FK" style="shape=partialRectangle;connectable=0;fillColor=none;top=0;left=0;bottom=0;right=0;editable=1;overflow=hidden;rounded=1;strokeColor=#909090;fontColor=#1A1A1A;" vertex="1" parent="whcrbTPLuVQ6Jo3Zv46X-17">
          <mxGeometry width="50" height="30" as="geometry">
            <mxRectangle width="50" height="30" as="alternateBounds" />
          </mxGeometry>
        </mxCell>
        <mxCell id="whcrbTPLuVQ6Jo3Zv46X-19" value="mem_id" style="shape=partialRectangle;connectable=0;fillColor=none;top=0;left=0;bottom=0;right=0;align=left;spacingLeft=6;overflow=hidden;rounded=1;strokeColor=#909090;fontColor=#1A1A1A;shadow=0;sketch=0;labelBorderColor=none;labelBackgroundColor=none;fontStyle=0" vertex="1" parent="whcrbTPLuVQ6Jo3Zv46X-17">
          <mxGeometry x="50" width="116.75" height="30" as="geometry">
            <mxRectangle width="116.75" height="30" as="alternateBounds" />
          </mxGeometry>
        </mxCell>
        <mxCell id="whcrbTPLuVQ6Jo3Zv46X-44" style="shape=tableRow;horizontal=0;startSize=0;swimlaneHead=0;swimlaneBody=0;fillColor=none;collapsible=0;dropTarget=0;points=[[0,0.5],[1,0.5]];portConstraint=eastwest;top=0;left=0;right=0;bottom=0;rounded=1;strokeColor=#909090;fontColor=#1A1A1A;" vertex="1" parent="whcrbTPLuVQ6Jo3Zv46X-4">
          <mxGeometry y="450" width="166.75" height="30" as="geometry" />
        </mxCell>
        <mxCell id="whcrbTPLuVQ6Jo3Zv46X-45" style="shape=partialRectangle;connectable=0;fillColor=none;top=0;left=0;bottom=0;right=0;editable=1;overflow=hidden;rounded=1;strokeColor=#909090;fontColor=#1A1A1A;" vertex="1" parent="whcrbTPLuVQ6Jo3Zv46X-44">
          <mxGeometry width="50" height="30" as="geometry">
            <mxRectangle width="50" height="30" as="alternateBounds" />
          </mxGeometry>
        </mxCell>
        <mxCell id="whcrbTPLuVQ6Jo3Zv46X-46" value="mobile" style="shape=partialRectangle;connectable=0;fillColor=none;top=0;left=0;bottom=0;right=0;align=left;spacingLeft=6;overflow=hidden;rounded=1;strokeColor=#909090;fontColor=#1A1A1A;shadow=0;sketch=0;labelBorderColor=none;labelBackgroundColor=none;fontStyle=0" vertex="1" parent="whcrbTPLuVQ6Jo3Zv46X-44">
          <mxGeometry x="50" width="116.75" height="30" as="geometry">
            <mxRectangle width="116.75" height="30" as="alternateBounds" />
          </mxGeometry>
        </mxCell>
        <mxCell id="whcrbTPLuVQ6Jo3Zv46X-47" style="shape=tableRow;horizontal=0;startSize=0;swimlaneHead=0;swimlaneBody=0;fillColor=none;collapsible=0;dropTarget=0;points=[[0,0.5],[1,0.5]];portConstraint=eastwest;top=0;left=0;right=0;bottom=0;rounded=1;strokeColor=#909090;fontColor=#1A1A1A;" vertex="1" parent="whcrbTPLuVQ6Jo3Zv46X-4">
          <mxGeometry y="480" width="166.75" height="30" as="geometry" />
        </mxCell>
        <mxCell id="whcrbTPLuVQ6Jo3Zv46X-48" style="shape=partialRectangle;connectable=0;fillColor=none;top=0;left=0;bottom=0;right=0;editable=1;overflow=hidden;rounded=1;strokeColor=#909090;fontColor=#1A1A1A;" vertex="1" parent="whcrbTPLuVQ6Jo3Zv46X-47">
          <mxGeometry width="50" height="30" as="geometry">
            <mxRectangle width="50" height="30" as="alternateBounds" />
          </mxGeometry>
        </mxCell>
        <mxCell id="whcrbTPLuVQ6Jo3Zv46X-49" value="email" style="shape=partialRectangle;connectable=0;fillColor=none;top=0;left=0;bottom=0;right=0;align=left;spacingLeft=6;overflow=hidden;rounded=1;strokeColor=#909090;fontColor=#1A1A1A;shadow=0;sketch=0;labelBorderColor=none;labelBackgroundColor=none;fontStyle=0" vertex="1" parent="whcrbTPLuVQ6Jo3Zv46X-47">
          <mxGeometry x="50" width="116.75" height="30" as="geometry">
            <mxRectangle width="116.75" height="30" as="alternateBounds" />
          </mxGeometry>
        </mxCell>
        <mxCell id="whcrbTPLuVQ6Jo3Zv46X-59" value="Infant" style="shape=table;startSize=30;container=1;collapsible=1;childLayout=tableLayout;fixedRows=1;rowLines=0;fontStyle=1;align=center;resizeLast=1;rounded=1;fillColor=#F5AB50;strokeColor=#909090;fontColor=#1A1A1A;" vertex="1" parent="1">
          <mxGeometry x="970.42" y="680" width="130.57894736842127" height="150" as="geometry" />
        </mxCell>
        <mxCell id="whcrbTPLuVQ6Jo3Zv46X-60" value="" style="shape=tableRow;horizontal=0;startSize=0;swimlaneHead=0;swimlaneBody=0;fillColor=none;collapsible=0;dropTarget=0;points=[[0,0.5],[1,0.5]];portConstraint=eastwest;top=0;left=0;right=0;bottom=1;rounded=1;strokeColor=#909090;fontColor=#1A1A1A;" vertex="1" parent="whcrbTPLuVQ6Jo3Zv46X-59">
          <mxGeometry y="30" width="130.57894736842127" height="30" as="geometry" />
        </mxCell>
        <mxCell id="whcrbTPLuVQ6Jo3Zv46X-61" value="PK" style="shape=partialRectangle;connectable=0;fillColor=none;top=0;left=0;bottom=0;right=0;fontStyle=1;overflow=hidden;rounded=1;strokeColor=#909090;fontColor=#1A1A1A;" vertex="1" parent="whcrbTPLuVQ6Jo3Zv46X-60">
          <mxGeometry width="30" height="30" as="geometry">
            <mxRectangle width="30" height="30" as="alternateBounds" />
          </mxGeometry>
        </mxCell>
        <mxCell id="whcrbTPLuVQ6Jo3Zv46X-62" value="infant_id" style="shape=partialRectangle;connectable=0;fillColor=none;top=0;left=0;bottom=0;right=0;align=left;spacingLeft=6;fontStyle=5;overflow=hidden;rounded=1;strokeColor=#909090;fontColor=#1A1A1A;" vertex="1" parent="whcrbTPLuVQ6Jo3Zv46X-60">
          <mxGeometry x="30" width="100.57894736842127" height="30" as="geometry">
            <mxRectangle width="100.57894736842127" height="30" as="alternateBounds" />
          </mxGeometry>
        </mxCell>
        <mxCell id="whcrbTPLuVQ6Jo3Zv46X-63" value="" style="shape=tableRow;horizontal=0;startSize=0;swimlaneHead=0;swimlaneBody=0;fillColor=none;collapsible=0;dropTarget=0;points=[[0,0.5],[1,0.5]];portConstraint=eastwest;top=0;left=0;right=0;bottom=0;rounded=1;strokeColor=#909090;fontColor=#1A1A1A;" vertex="1" parent="whcrbTPLuVQ6Jo3Zv46X-59">
          <mxGeometry y="60" width="130.57894736842127" height="30" as="geometry" />
        </mxCell>
        <mxCell id="whcrbTPLuVQ6Jo3Zv46X-64" value="" style="shape=partialRectangle;connectable=0;fillColor=none;top=0;left=0;bottom=0;right=0;editable=1;overflow=hidden;rounded=1;strokeColor=#909090;fontColor=#1A1A1A;" vertex="1" parent="whcrbTPLuVQ6Jo3Zv46X-63">
          <mxGeometry width="30" height="30" as="geometry">
            <mxRectangle width="30" height="30" as="alternateBounds" />
          </mxGeometry>
        </mxCell>
        <mxCell id="whcrbTPLuVQ6Jo3Zv46X-65" value="first_name" style="shape=partialRectangle;connectable=0;fillColor=none;top=0;left=0;bottom=0;right=0;align=left;spacingLeft=6;overflow=hidden;rounded=1;strokeColor=#909090;fontColor=#1A1A1A;" vertex="1" parent="whcrbTPLuVQ6Jo3Zv46X-63">
          <mxGeometry x="30" width="100.57894736842127" height="30" as="geometry">
            <mxRectangle width="100.57894736842127" height="30" as="alternateBounds" />
          </mxGeometry>
        </mxCell>
        <mxCell id="whcrbTPLuVQ6Jo3Zv46X-66" value="" style="shape=tableRow;horizontal=0;startSize=0;swimlaneHead=0;swimlaneBody=0;fillColor=none;collapsible=0;dropTarget=0;points=[[0,0.5],[1,0.5]];portConstraint=eastwest;top=0;left=0;right=0;bottom=0;rounded=1;strokeColor=#909090;fontColor=#1A1A1A;" vertex="1" parent="whcrbTPLuVQ6Jo3Zv46X-59">
          <mxGeometry y="90" width="130.57894736842127" height="30" as="geometry" />
        </mxCell>
        <mxCell id="whcrbTPLuVQ6Jo3Zv46X-67" value="" style="shape=partialRectangle;connectable=0;fillColor=none;top=0;left=0;bottom=0;right=0;editable=1;overflow=hidden;rounded=1;strokeColor=#909090;fontColor=#1A1A1A;" vertex="1" parent="whcrbTPLuVQ6Jo3Zv46X-66">
          <mxGeometry width="30" height="30" as="geometry">
            <mxRectangle width="30" height="30" as="alternateBounds" />
          </mxGeometry>
        </mxCell>
        <mxCell id="whcrbTPLuVQ6Jo3Zv46X-68" value="last_name" style="shape=partialRectangle;connectable=0;fillColor=none;top=0;left=0;bottom=0;right=0;align=left;spacingLeft=6;overflow=hidden;rounded=1;strokeColor=#909090;fontColor=#1A1A1A;" vertex="1" parent="whcrbTPLuVQ6Jo3Zv46X-66">
          <mxGeometry x="30" width="100.57894736842127" height="30" as="geometry">
            <mxRectangle width="100.57894736842127" height="30" as="alternateBounds" />
          </mxGeometry>
        </mxCell>
        <mxCell id="whcrbTPLuVQ6Jo3Zv46X-69" value="" style="shape=tableRow;horizontal=0;startSize=0;swimlaneHead=0;swimlaneBody=0;fillColor=none;collapsible=0;dropTarget=0;points=[[0,0.5],[1,0.5]];portConstraint=eastwest;top=0;left=0;right=0;bottom=0;rounded=1;strokeColor=#909090;fontColor=#1A1A1A;" vertex="1" parent="whcrbTPLuVQ6Jo3Zv46X-59">
          <mxGeometry y="120" width="130.57894736842127" height="30" as="geometry" />
        </mxCell>
        <mxCell id="whcrbTPLuVQ6Jo3Zv46X-70" value="" style="shape=partialRectangle;connectable=0;fillColor=none;top=0;left=0;bottom=0;right=0;editable=1;overflow=hidden;rounded=1;strokeColor=#909090;fontColor=#1A1A1A;" vertex="1" parent="whcrbTPLuVQ6Jo3Zv46X-69">
          <mxGeometry width="30" height="30" as="geometry">
            <mxRectangle width="30" height="30" as="alternateBounds" />
          </mxGeometry>
        </mxCell>
        <mxCell id="whcrbTPLuVQ6Jo3Zv46X-71" value="dob" style="shape=partialRectangle;connectable=0;fillColor=none;top=0;left=0;bottom=0;right=0;align=left;spacingLeft=6;overflow=hidden;rounded=1;strokeColor=#909090;fontColor=#1A1A1A;" vertex="1" parent="whcrbTPLuVQ6Jo3Zv46X-69">
          <mxGeometry x="30" width="100.57894736842127" height="30" as="geometry">
            <mxRectangle width="100.57894736842127" height="30" as="alternateBounds" />
          </mxGeometry>
        </mxCell>
        <mxCell id="whcrbTPLuVQ6Jo3Zv46X-99" value="Baggage" style="shape=table;startSize=30;container=1;collapsible=1;childLayout=tableLayout;fixedRows=1;rowLines=0;fontStyle=1;align=center;resizeLast=1;rounded=1;fillColor=#F5AB50;strokeColor=#909090;fontColor=#1A1A1A;" vertex="1" parent="1">
          <mxGeometry x="971" y="434" width="130" height="240" as="geometry" />
        </mxCell>
        <mxCell id="whcrbTPLuVQ6Jo3Zv46X-100" value="" style="shape=tableRow;horizontal=0;startSize=0;swimlaneHead=0;swimlaneBody=0;fillColor=none;collapsible=0;dropTarget=0;points=[[0,0.5],[1,0.5]];portConstraint=eastwest;top=0;left=0;right=0;bottom=1;rounded=1;strokeColor=#909090;fontColor=#1A1A1A;" vertex="1" parent="whcrbTPLuVQ6Jo3Zv46X-99">
          <mxGeometry y="30" width="130" height="30" as="geometry" />
        </mxCell>
        <mxCell id="whcrbTPLuVQ6Jo3Zv46X-101" value="PK" style="shape=partialRectangle;connectable=0;fillColor=none;top=0;left=0;bottom=0;right=0;fontStyle=1;overflow=hidden;rounded=1;strokeColor=#909090;fontColor=#1A1A1A;" vertex="1" parent="whcrbTPLuVQ6Jo3Zv46X-100">
          <mxGeometry width="30" height="30" as="geometry">
            <mxRectangle width="30" height="30" as="alternateBounds" />
          </mxGeometry>
        </mxCell>
        <mxCell id="whcrbTPLuVQ6Jo3Zv46X-102" value="id" style="shape=partialRectangle;connectable=0;fillColor=none;top=0;left=0;bottom=0;right=0;align=left;spacingLeft=6;fontStyle=5;overflow=hidden;rounded=1;strokeColor=#909090;fontColor=#1A1A1A;" vertex="1" parent="whcrbTPLuVQ6Jo3Zv46X-100">
          <mxGeometry x="30" width="100" height="30" as="geometry">
            <mxRectangle width="100" height="30" as="alternateBounds" />
          </mxGeometry>
        </mxCell>
        <mxCell id="whcrbTPLuVQ6Jo3Zv46X-103" value="" style="shape=tableRow;horizontal=0;startSize=0;swimlaneHead=0;swimlaneBody=0;fillColor=none;collapsible=0;dropTarget=0;points=[[0,0.5],[1,0.5]];portConstraint=eastwest;top=0;left=0;right=0;bottom=0;rounded=1;strokeColor=#909090;fontColor=#1A1A1A;" vertex="1" parent="whcrbTPLuVQ6Jo3Zv46X-99">
          <mxGeometry y="60" width="130" height="30" as="geometry" />
        </mxCell>
        <mxCell id="whcrbTPLuVQ6Jo3Zv46X-104" value="FK" style="shape=partialRectangle;connectable=0;fillColor=none;top=0;left=0;bottom=0;right=0;editable=1;overflow=hidden;rounded=1;strokeColor=#909090;fontColor=#1A1A1A;" vertex="1" parent="whcrbTPLuVQ6Jo3Zv46X-103">
          <mxGeometry width="30" height="30" as="geometry">
            <mxRectangle width="30" height="30" as="alternateBounds" />
          </mxGeometry>
        </mxCell>
        <mxCell id="whcrbTPLuVQ6Jo3Zv46X-105" value="booking_id" style="shape=partialRectangle;connectable=0;fillColor=none;top=0;left=0;bottom=0;right=0;align=left;spacingLeft=6;overflow=hidden;rounded=1;strokeColor=#909090;fontColor=#1A1A1A;fontStyle=1" vertex="1" parent="whcrbTPLuVQ6Jo3Zv46X-103">
          <mxGeometry x="30" width="100" height="30" as="geometry">
            <mxRectangle width="100" height="30" as="alternateBounds" />
          </mxGeometry>
        </mxCell>
        <mxCell id="whcrbTPLuVQ6Jo3Zv46X-106" value="" style="shape=tableRow;horizontal=0;startSize=0;swimlaneHead=0;swimlaneBody=0;fillColor=none;collapsible=0;dropTarget=0;points=[[0,0.5],[1,0.5]];portConstraint=eastwest;top=0;left=0;right=0;bottom=0;rounded=1;strokeColor=#909090;fontColor=#1A1A1A;" vertex="1" parent="whcrbTPLuVQ6Jo3Zv46X-99">
          <mxGeometry y="90" width="130" height="30" as="geometry" />
        </mxCell>
        <mxCell id="whcrbTPLuVQ6Jo3Zv46X-107" value="" style="shape=partialRectangle;connectable=0;fillColor=none;top=0;left=0;bottom=0;right=0;editable=1;overflow=hidden;rounded=1;strokeColor=#909090;fontColor=#1A1A1A;" vertex="1" parent="whcrbTPLuVQ6Jo3Zv46X-106">
          <mxGeometry width="30" height="30" as="geometry">
            <mxRectangle width="30" height="30" as="alternateBounds" />
          </mxGeometry>
        </mxCell>
        <mxCell id="whcrbTPLuVQ6Jo3Zv46X-108" value="tagNo" style="shape=partialRectangle;connectable=0;fillColor=none;top=0;left=0;bottom=0;right=0;align=left;spacingLeft=6;overflow=hidden;rounded=1;strokeColor=#909090;fontColor=#1A1A1A;" vertex="1" parent="whcrbTPLuVQ6Jo3Zv46X-106">
          <mxGeometry x="30" width="100" height="30" as="geometry">
            <mxRectangle width="100" height="30" as="alternateBounds" />
          </mxGeometry>
        </mxCell>
        <mxCell id="whcrbTPLuVQ6Jo3Zv46X-109" value="" style="shape=tableRow;horizontal=0;startSize=0;swimlaneHead=0;swimlaneBody=0;fillColor=none;collapsible=0;dropTarget=0;points=[[0,0.5],[1,0.5]];portConstraint=eastwest;top=0;left=0;right=0;bottom=0;rounded=1;strokeColor=#909090;fontColor=#1A1A1A;" vertex="1" parent="whcrbTPLuVQ6Jo3Zv46X-99">
          <mxGeometry y="120" width="130" height="30" as="geometry" />
        </mxCell>
        <mxCell id="whcrbTPLuVQ6Jo3Zv46X-110" value="" style="shape=partialRectangle;connectable=0;fillColor=none;top=0;left=0;bottom=0;right=0;editable=1;overflow=hidden;rounded=1;strokeColor=#909090;fontColor=#1A1A1A;" vertex="1" parent="whcrbTPLuVQ6Jo3Zv46X-109">
          <mxGeometry width="30" height="30" as="geometry">
            <mxRectangle width="30" height="30" as="alternateBounds" />
          </mxGeometry>
        </mxCell>
        <mxCell id="whcrbTPLuVQ6Jo3Zv46X-111" value="status" style="shape=partialRectangle;connectable=0;fillColor=none;top=0;left=0;bottom=0;right=0;align=left;spacingLeft=6;overflow=hidden;rounded=1;strokeColor=#909090;fontColor=#1A1A1A;" vertex="1" parent="whcrbTPLuVQ6Jo3Zv46X-109">
          <mxGeometry x="30" width="100" height="30" as="geometry">
            <mxRectangle width="100" height="30" as="alternateBounds" />
          </mxGeometry>
        </mxCell>
        <mxCell id="whcrbTPLuVQ6Jo3Zv46X-112" value="" style="shape=tableRow;horizontal=0;startSize=0;swimlaneHead=0;swimlaneBody=0;fillColor=none;collapsible=0;dropTarget=0;points=[[0,0.5],[1,0.5]];portConstraint=eastwest;top=0;left=0;right=0;bottom=0;rounded=1;strokeColor=#909090;fontColor=#1A1A1A;" vertex="1" parent="whcrbTPLuVQ6Jo3Zv46X-99">
          <mxGeometry y="150" width="130" height="30" as="geometry" />
        </mxCell>
        <mxCell id="whcrbTPLuVQ6Jo3Zv46X-113" value="" style="shape=partialRectangle;connectable=0;fillColor=none;top=0;left=0;bottom=0;right=0;editable=1;overflow=hidden;rounded=1;strokeColor=#909090;fontColor=#1A1A1A;" vertex="1" parent="whcrbTPLuVQ6Jo3Zv46X-112">
          <mxGeometry width="30" height="30" as="geometry">
            <mxRectangle width="30" height="30" as="alternateBounds" />
          </mxGeometry>
        </mxCell>
        <mxCell id="whcrbTPLuVQ6Jo3Zv46X-114" value="pcs" style="shape=partialRectangle;connectable=0;fillColor=none;top=0;left=0;bottom=0;right=0;align=left;spacingLeft=6;overflow=hidden;rounded=1;strokeColor=#909090;fontColor=#1A1A1A;" vertex="1" parent="whcrbTPLuVQ6Jo3Zv46X-112">
          <mxGeometry x="30" width="100" height="30" as="geometry">
            <mxRectangle width="100" height="30" as="alternateBounds" />
          </mxGeometry>
        </mxCell>
        <mxCell id="whcrbTPLuVQ6Jo3Zv46X-115" value="" style="shape=tableRow;horizontal=0;startSize=0;swimlaneHead=0;swimlaneBody=0;fillColor=none;collapsible=0;dropTarget=0;points=[[0,0.5],[1,0.5]];portConstraint=eastwest;top=0;left=0;right=0;bottom=0;rounded=1;strokeColor=#909090;fontColor=#1A1A1A;" vertex="1" parent="whcrbTPLuVQ6Jo3Zv46X-99">
          <mxGeometry y="180" width="130" height="30" as="geometry" />
        </mxCell>
        <mxCell id="whcrbTPLuVQ6Jo3Zv46X-116" value="" style="shape=partialRectangle;connectable=0;fillColor=none;top=0;left=0;bottom=0;right=0;editable=1;overflow=hidden;rounded=1;strokeColor=#909090;fontColor=#1A1A1A;" vertex="1" parent="whcrbTPLuVQ6Jo3Zv46X-115">
          <mxGeometry width="30" height="30" as="geometry">
            <mxRectangle width="30" height="30" as="alternateBounds" />
          </mxGeometry>
        </mxCell>
        <mxCell id="whcrbTPLuVQ6Jo3Zv46X-117" value="wgt" style="shape=partialRectangle;connectable=0;fillColor=none;top=0;left=0;bottom=0;right=0;align=left;spacingLeft=6;overflow=hidden;rounded=1;strokeColor=#909090;fontColor=#1A1A1A;" vertex="1" parent="whcrbTPLuVQ6Jo3Zv46X-115">
          <mxGeometry x="30" width="100" height="30" as="geometry">
            <mxRectangle width="100" height="30" as="alternateBounds" />
          </mxGeometry>
        </mxCell>
        <mxCell id="whcrbTPLuVQ6Jo3Zv46X-118" value="" style="shape=tableRow;horizontal=0;startSize=0;swimlaneHead=0;swimlaneBody=0;fillColor=none;collapsible=0;dropTarget=0;points=[[0,0.5],[1,0.5]];portConstraint=eastwest;top=0;left=0;right=0;bottom=0;rounded=1;strokeColor=#909090;fontColor=#1A1A1A;" vertex="1" parent="whcrbTPLuVQ6Jo3Zv46X-99">
          <mxGeometry y="210" width="130" height="30" as="geometry" />
        </mxCell>
        <mxCell id="whcrbTPLuVQ6Jo3Zv46X-119" value="" style="shape=partialRectangle;connectable=0;fillColor=none;top=0;left=0;bottom=0;right=0;editable=1;overflow=hidden;rounded=1;strokeColor=#909090;fontColor=#1A1A1A;" vertex="1" parent="whcrbTPLuVQ6Jo3Zv46X-118">
          <mxGeometry width="30" height="30" as="geometry">
            <mxRectangle width="30" height="30" as="alternateBounds" />
          </mxGeometry>
        </mxCell>
        <mxCell id="whcrbTPLuVQ6Jo3Zv46X-120" value="barcode" style="shape=partialRectangle;connectable=0;fillColor=none;top=0;left=0;bottom=0;right=0;align=left;spacingLeft=6;overflow=hidden;rounded=1;strokeColor=#909090;fontColor=#1A1A1A;" vertex="1" parent="whcrbTPLuVQ6Jo3Zv46X-118">
          <mxGeometry x="30" width="100" height="30" as="geometry">
            <mxRectangle width="100" height="30" as="alternateBounds" />
          </mxGeometry>
        </mxCell>
        <mxCell id="whcrbTPLuVQ6Jo3Zv46X-121" style="edgeStyle=orthogonalEdgeStyle;rounded=0;orthogonalLoop=1;jettySize=auto;html=1;exitX=1;exitY=0.5;exitDx=0;exitDy=0;curved=1;startArrow=ERzeroToOne;startFill=0;endArrow=ERone;endFill=0;entryX=0;entryY=0.5;entryDx=0;entryDy=0;" edge="1" parent="1" source="whcrbTPLuVQ6Jo3Zv46X-32" target="whcrbTPLuVQ6Jo3Zv46X-60">
          <mxGeometry relative="1" as="geometry">
            <mxPoint x="913" y="858" as="sourcePoint" />
            <Array as="points">
              <mxPoint x="939" y="794" />
              <mxPoint x="939" y="725" />
            </Array>
            <mxPoint x="1074" y="815" as="targetPoint" />
          </mxGeometry>
        </mxCell>
        <mxCell id="whcrbTPLuVQ6Jo3Zv46X-122" style="edgeStyle=orthogonalEdgeStyle;rounded=0;orthogonalLoop=1;jettySize=auto;html=1;exitX=1;exitY=0.5;exitDx=0;exitDy=0;entryX=0;entryY=0.5;entryDx=0;entryDy=0;curved=1;startArrow=ERzeroToOne;startFill=0;endArrow=ERoneToMany;endFill=0;" edge="1" parent="1" source="whcrbTPLuVQ6Jo3Zv46X-5" target="whcrbTPLuVQ6Jo3Zv46X-103">
          <mxGeometry relative="1" as="geometry" />
        </mxCell>
        <mxCell id="whcrbTPLuVQ6Jo3Zv46X-123" value="Payment" style="shape=table;startSize=30;container=1;collapsible=1;childLayout=tableLayout;fixedRows=1;rowLines=0;fontStyle=1;align=center;resizeLast=1;rounded=1;fillColor=#F5AB50;strokeColor=#909090;fontColor=#1A1A1A;" vertex="1" parent="1">
          <mxGeometry x="508" y="345" width="143.75" height="300" as="geometry" />
        </mxCell>
        <mxCell id="whcrbTPLuVQ6Jo3Zv46X-124" value="" style="shape=tableRow;horizontal=0;startSize=0;swimlaneHead=0;swimlaneBody=0;fillColor=none;collapsible=0;dropTarget=0;points=[[0,0.5],[1,0.5]];portConstraint=eastwest;top=0;left=0;right=0;bottom=1;rounded=1;strokeColor=#909090;fontColor=#1A1A1A;" vertex="1" parent="whcrbTPLuVQ6Jo3Zv46X-123">
          <mxGeometry y="30" width="143.75" height="30" as="geometry" />
        </mxCell>
        <mxCell id="whcrbTPLuVQ6Jo3Zv46X-125" value="PK" style="shape=partialRectangle;connectable=0;fillColor=none;top=0;left=0;bottom=0;right=0;fontStyle=1;overflow=hidden;rounded=1;strokeColor=#909090;fontColor=#1A1A1A;" vertex="1" parent="whcrbTPLuVQ6Jo3Zv46X-124">
          <mxGeometry width="30" height="30" as="geometry">
            <mxRectangle width="30" height="30" as="alternateBounds" />
          </mxGeometry>
        </mxCell>
        <mxCell id="whcrbTPLuVQ6Jo3Zv46X-126" value="id" style="shape=partialRectangle;connectable=0;fillColor=none;top=0;left=0;bottom=0;right=0;align=left;spacingLeft=6;fontStyle=5;overflow=hidden;rounded=1;strokeColor=#909090;fontColor=#1A1A1A;" vertex="1" parent="whcrbTPLuVQ6Jo3Zv46X-124">
          <mxGeometry x="30" width="113.75" height="30" as="geometry">
            <mxRectangle width="113.75" height="30" as="alternateBounds" />
          </mxGeometry>
        </mxCell>
        <mxCell id="whcrbTPLuVQ6Jo3Zv46X-130" value="" style="shape=tableRow;horizontal=0;startSize=0;swimlaneHead=0;swimlaneBody=0;fillColor=none;collapsible=0;dropTarget=0;points=[[0,0.5],[1,0.5]];portConstraint=eastwest;top=0;left=0;right=0;bottom=0;rounded=1;strokeColor=#909090;fontColor=#1A1A1A;" vertex="1" parent="whcrbTPLuVQ6Jo3Zv46X-123">
          <mxGeometry y="60" width="143.75" height="30" as="geometry" />
        </mxCell>
        <mxCell id="whcrbTPLuVQ6Jo3Zv46X-131" value="" style="shape=partialRectangle;connectable=0;fillColor=none;top=0;left=0;bottom=0;right=0;editable=1;overflow=hidden;rounded=1;strokeColor=#909090;fontColor=#1A1A1A;" vertex="1" parent="whcrbTPLuVQ6Jo3Zv46X-130">
          <mxGeometry width="30" height="30" as="geometry">
            <mxRectangle width="30" height="30" as="alternateBounds" />
          </mxGeometry>
        </mxCell>
        <mxCell id="whcrbTPLuVQ6Jo3Zv46X-132" value="single_price" style="shape=partialRectangle;connectable=0;fillColor=none;top=0;left=0;bottom=0;right=0;align=left;spacingLeft=6;overflow=hidden;rounded=1;strokeColor=#909090;fontColor=#1A1A1A;" vertex="1" parent="whcrbTPLuVQ6Jo3Zv46X-130">
          <mxGeometry x="30" width="113.75" height="30" as="geometry">
            <mxRectangle width="113.75" height="30" as="alternateBounds" />
          </mxGeometry>
        </mxCell>
        <mxCell id="whcrbTPLuVQ6Jo3Zv46X-133" value="" style="shape=tableRow;horizontal=0;startSize=0;swimlaneHead=0;swimlaneBody=0;fillColor=none;collapsible=0;dropTarget=0;points=[[0,0.5],[1,0.5]];portConstraint=eastwest;top=0;left=0;right=0;bottom=0;rounded=1;strokeColor=#909090;fontColor=#1A1A1A;" vertex="1" parent="whcrbTPLuVQ6Jo3Zv46X-123">
          <mxGeometry y="90" width="143.75" height="30" as="geometry" />
        </mxCell>
        <mxCell id="whcrbTPLuVQ6Jo3Zv46X-134" value="" style="shape=partialRectangle;connectable=0;fillColor=none;top=0;left=0;bottom=0;right=0;editable=1;overflow=hidden;rounded=1;strokeColor=#909090;fontColor=#1A1A1A;" vertex="1" parent="whcrbTPLuVQ6Jo3Zv46X-133">
          <mxGeometry width="30" height="30" as="geometry">
            <mxRectangle width="30" height="30" as="alternateBounds" />
          </mxGeometry>
        </mxCell>
        <mxCell id="whcrbTPLuVQ6Jo3Zv46X-135" value="airport_fee" style="shape=partialRectangle;connectable=0;fillColor=none;top=0;left=0;bottom=0;right=0;align=left;spacingLeft=6;overflow=hidden;rounded=1;strokeColor=#909090;fontColor=#1A1A1A;" vertex="1" parent="whcrbTPLuVQ6Jo3Zv46X-133">
          <mxGeometry x="30" width="113.75" height="30" as="geometry">
            <mxRectangle width="113.75" height="30" as="alternateBounds" />
          </mxGeometry>
        </mxCell>
        <mxCell id="whcrbTPLuVQ6Jo3Zv46X-136" value="" style="shape=tableRow;horizontal=0;startSize=0;swimlaneHead=0;swimlaneBody=0;fillColor=none;collapsible=0;dropTarget=0;points=[[0,0.5],[1,0.5]];portConstraint=eastwest;top=0;left=0;right=0;bottom=0;rounded=1;strokeColor=#909090;fontColor=#1A1A1A;" vertex="1" parent="whcrbTPLuVQ6Jo3Zv46X-123">
          <mxGeometry y="120" width="143.75" height="30" as="geometry" />
        </mxCell>
        <mxCell id="whcrbTPLuVQ6Jo3Zv46X-137" value="" style="shape=partialRectangle;connectable=0;fillColor=none;top=0;left=0;bottom=0;right=0;editable=1;overflow=hidden;rounded=1;strokeColor=#909090;fontColor=#1A1A1A;" vertex="1" parent="whcrbTPLuVQ6Jo3Zv46X-136">
          <mxGeometry width="30" height="30" as="geometry">
            <mxRectangle width="30" height="30" as="alternateBounds" />
          </mxGeometry>
        </mxCell>
        <mxCell id="whcrbTPLuVQ6Jo3Zv46X-138" value="tax" style="shape=partialRectangle;connectable=0;fillColor=none;top=0;left=0;bottom=0;right=0;align=left;spacingLeft=6;overflow=hidden;rounded=1;strokeColor=#909090;fontColor=#1A1A1A;" vertex="1" parent="whcrbTPLuVQ6Jo3Zv46X-136">
          <mxGeometry x="30" width="113.75" height="30" as="geometry">
            <mxRectangle width="113.75" height="30" as="alternateBounds" />
          </mxGeometry>
        </mxCell>
        <mxCell id="whcrbTPLuVQ6Jo3Zv46X-139" value="" style="shape=tableRow;horizontal=0;startSize=0;swimlaneHead=0;swimlaneBody=0;fillColor=none;collapsible=0;dropTarget=0;points=[[0,0.5],[1,0.5]];portConstraint=eastwest;top=0;left=0;right=0;bottom=0;rounded=1;strokeColor=#909090;fontColor=#1A1A1A;" vertex="1" parent="whcrbTPLuVQ6Jo3Zv46X-123">
          <mxGeometry y="150" width="143.75" height="30" as="geometry" />
        </mxCell>
        <mxCell id="whcrbTPLuVQ6Jo3Zv46X-140" value="" style="shape=partialRectangle;connectable=0;fillColor=none;top=0;left=0;bottom=0;right=0;editable=1;overflow=hidden;rounded=1;strokeColor=#909090;fontColor=#1A1A1A;" vertex="1" parent="whcrbTPLuVQ6Jo3Zv46X-139">
          <mxGeometry width="30" height="30" as="geometry">
            <mxRectangle width="30" height="30" as="alternateBounds" />
          </mxGeometry>
        </mxCell>
        <mxCell id="whcrbTPLuVQ6Jo3Zv46X-141" value="bag_fee" style="shape=partialRectangle;connectable=0;fillColor=none;top=0;left=0;bottom=0;right=0;align=left;spacingLeft=6;overflow=hidden;rounded=1;strokeColor=#909090;fontColor=#1A1A1A;" vertex="1" parent="whcrbTPLuVQ6Jo3Zv46X-139">
          <mxGeometry x="30" width="113.75" height="30" as="geometry">
            <mxRectangle width="113.75" height="30" as="alternateBounds" />
          </mxGeometry>
        </mxCell>
        <mxCell id="whcrbTPLuVQ6Jo3Zv46X-142" value="" style="shape=tableRow;horizontal=0;startSize=0;swimlaneHead=0;swimlaneBody=0;fillColor=none;collapsible=0;dropTarget=0;points=[[0,0.5],[1,0.5]];portConstraint=eastwest;top=0;left=0;right=0;bottom=0;rounded=1;strokeColor=#909090;fontColor=#1A1A1A;" vertex="1" parent="whcrbTPLuVQ6Jo3Zv46X-123">
          <mxGeometry y="180" width="143.75" height="30" as="geometry" />
        </mxCell>
        <mxCell id="whcrbTPLuVQ6Jo3Zv46X-143" value="" style="shape=partialRectangle;connectable=0;fillColor=none;top=0;left=0;bottom=0;right=0;editable=1;overflow=hidden;rounded=1;strokeColor=#909090;fontColor=#1A1A1A;" vertex="1" parent="whcrbTPLuVQ6Jo3Zv46X-142">
          <mxGeometry width="30" height="30" as="geometry">
            <mxRectangle width="30" height="30" as="alternateBounds" />
          </mxGeometry>
        </mxCell>
        <mxCell id="whcrbTPLuVQ6Jo3Zv46X-144" value="discount" style="shape=partialRectangle;connectable=0;fillColor=none;top=0;left=0;bottom=0;right=0;align=left;spacingLeft=6;overflow=hidden;rounded=1;strokeColor=#909090;fontColor=#1A1A1A;" vertex="1" parent="whcrbTPLuVQ6Jo3Zv46X-142">
          <mxGeometry x="30" width="113.75" height="30" as="geometry">
            <mxRectangle width="113.75" height="30" as="alternateBounds" />
          </mxGeometry>
        </mxCell>
        <mxCell id="whcrbTPLuVQ6Jo3Zv46X-178" value="" style="shape=tableRow;horizontal=0;startSize=0;swimlaneHead=0;swimlaneBody=0;fillColor=none;collapsible=0;dropTarget=0;points=[[0,0.5],[1,0.5]];portConstraint=eastwest;top=0;left=0;right=0;bottom=0;rounded=1;strokeColor=#909090;fontColor=#1A1A1A;" vertex="1" parent="whcrbTPLuVQ6Jo3Zv46X-123">
          <mxGeometry y="210" width="143.75" height="30" as="geometry" />
        </mxCell>
        <mxCell id="whcrbTPLuVQ6Jo3Zv46X-179" value="" style="shape=partialRectangle;connectable=0;fillColor=none;top=0;left=0;bottom=0;right=0;editable=1;overflow=hidden;rounded=1;strokeColor=#909090;fontColor=#1A1A1A;" vertex="1" parent="whcrbTPLuVQ6Jo3Zv46X-178">
          <mxGeometry width="30" height="30" as="geometry">
            <mxRectangle width="30" height="30" as="alternateBounds" />
          </mxGeometry>
        </mxCell>
        <mxCell id="whcrbTPLuVQ6Jo3Zv46X-180" value="payment_type" style="shape=partialRectangle;connectable=0;fillColor=none;top=0;left=0;bottom=0;right=0;align=left;spacingLeft=6;overflow=hidden;rounded=1;strokeColor=#909090;fontColor=#1A1A1A;" vertex="1" parent="whcrbTPLuVQ6Jo3Zv46X-178">
          <mxGeometry x="30" width="113.75" height="30" as="geometry">
            <mxRectangle width="113.75" height="30" as="alternateBounds" />
          </mxGeometry>
        </mxCell>
        <mxCell id="whcrbTPLuVQ6Jo3Zv46X-181" value="" style="shape=tableRow;horizontal=0;startSize=0;swimlaneHead=0;swimlaneBody=0;fillColor=none;collapsible=0;dropTarget=0;points=[[0,0.5],[1,0.5]];portConstraint=eastwest;top=0;left=0;right=0;bottom=0;rounded=1;strokeColor=#909090;fontColor=#1A1A1A;" vertex="1" parent="whcrbTPLuVQ6Jo3Zv46X-123">
          <mxGeometry y="240" width="143.75" height="30" as="geometry" />
        </mxCell>
        <mxCell id="whcrbTPLuVQ6Jo3Zv46X-182" value="" style="shape=partialRectangle;connectable=0;fillColor=none;top=0;left=0;bottom=0;right=0;editable=1;overflow=hidden;rounded=1;strokeColor=#909090;fontColor=#1A1A1A;" vertex="1" parent="whcrbTPLuVQ6Jo3Zv46X-181">
          <mxGeometry width="30" height="30" as="geometry">
            <mxRectangle width="30" height="30" as="alternateBounds" />
          </mxGeometry>
        </mxCell>
        <mxCell id="whcrbTPLuVQ6Jo3Zv46X-183" value="status" style="shape=partialRectangle;connectable=0;fillColor=none;top=0;left=0;bottom=0;right=0;align=left;spacingLeft=6;overflow=hidden;rounded=1;strokeColor=#909090;fontColor=#1A1A1A;" vertex="1" parent="whcrbTPLuVQ6Jo3Zv46X-181">
          <mxGeometry x="30" width="113.75" height="30" as="geometry">
            <mxRectangle width="113.75" height="30" as="alternateBounds" />
          </mxGeometry>
        </mxCell>
        <mxCell id="whcrbTPLuVQ6Jo3Zv46X-145" value="" style="shape=tableRow;horizontal=0;startSize=0;swimlaneHead=0;swimlaneBody=0;fillColor=none;collapsible=0;dropTarget=0;points=[[0,0.5],[1,0.5]];portConstraint=eastwest;top=0;left=0;right=0;bottom=0;rounded=1;strokeColor=#909090;fontColor=#1A1A1A;" vertex="1" parent="whcrbTPLuVQ6Jo3Zv46X-123">
          <mxGeometry y="270" width="143.75" height="30" as="geometry" />
        </mxCell>
        <mxCell id="whcrbTPLuVQ6Jo3Zv46X-146" value="FK" style="shape=partialRectangle;connectable=0;fillColor=none;top=0;left=0;bottom=0;right=0;editable=1;overflow=hidden;rounded=1;strokeColor=#909090;fontColor=#1A1A1A;" vertex="1" parent="whcrbTPLuVQ6Jo3Zv46X-145">
          <mxGeometry width="30" height="30" as="geometry">
            <mxRectangle width="30" height="30" as="alternateBounds" />
          </mxGeometry>
        </mxCell>
        <mxCell id="whcrbTPLuVQ6Jo3Zv46X-147" value="booking_id" style="shape=partialRectangle;connectable=0;fillColor=none;top=0;left=0;bottom=0;right=0;align=left;spacingLeft=6;overflow=hidden;rounded=1;strokeColor=#909090;fontColor=#1A1A1A;fontStyle=1" vertex="1" parent="whcrbTPLuVQ6Jo3Zv46X-145">
          <mxGeometry x="30" width="113.75" height="30" as="geometry">
            <mxRectangle width="113.75" height="30" as="alternateBounds" />
          </mxGeometry>
        </mxCell>
        <mxCell id="whcrbTPLuVQ6Jo3Zv46X-148" style="edgeStyle=orthogonalEdgeStyle;rounded=0;orthogonalLoop=1;jettySize=auto;html=1;exitX=1;exitY=0.5;exitDx=0;exitDy=0;entryX=0;entryY=0.5;entryDx=0;entryDy=0;curved=1;startArrow=ERone;startFill=0;endArrow=ERone;endFill=0;" edge="1" parent="1" source="whcrbTPLuVQ6Jo3Zv46X-145" target="whcrbTPLuVQ6Jo3Zv46X-5">
          <mxGeometry relative="1" as="geometry" />
        </mxCell>
        <mxCell id="whcrbTPLuVQ6Jo3Zv46X-149" value="Member" style="shape=table;startSize=30;container=1;collapsible=1;childLayout=tableLayout;fixedRows=1;rowLines=0;fontStyle=1;align=center;resizeLast=1;rounded=1;fillColor=#F5AB50;strokeColor=#909090;fontColor=#1A1A1A;arcSize=21;" vertex="1" parent="1">
          <mxGeometry x="968.46" y="838" width="132.53999999999996" height="240" as="geometry" />
        </mxCell>
        <mxCell id="whcrbTPLuVQ6Jo3Zv46X-150" value="" style="shape=tableRow;horizontal=0;startSize=0;swimlaneHead=0;swimlaneBody=0;fillColor=none;collapsible=0;dropTarget=0;points=[[0,0.5],[1,0.5]];portConstraint=eastwest;top=0;left=0;right=0;bottom=1;rounded=1;strokeColor=#909090;fontColor=#1A1A1A;" vertex="1" parent="whcrbTPLuVQ6Jo3Zv46X-149">
          <mxGeometry y="30" width="132.53999999999996" height="30" as="geometry" />
        </mxCell>
        <mxCell id="whcrbTPLuVQ6Jo3Zv46X-151" value="PK, &#xa;FK" style="shape=partialRectangle;connectable=0;fillColor=none;top=0;left=0;bottom=0;right=0;fontStyle=1;overflow=hidden;rounded=1;strokeColor=#909090;fontColor=#1A1A1A;" vertex="1" parent="whcrbTPLuVQ6Jo3Zv46X-150">
          <mxGeometry width="40.539999999999964" height="30" as="geometry">
            <mxRectangle width="40.539999999999964" height="30" as="alternateBounds" />
          </mxGeometry>
        </mxCell>
        <mxCell id="whcrbTPLuVQ6Jo3Zv46X-152" value="id" style="shape=partialRectangle;connectable=0;fillColor=none;top=0;left=0;bottom=0;right=0;align=left;spacingLeft=6;fontStyle=5;overflow=hidden;rounded=1;strokeColor=#909090;fontColor=#1A1A1A;" vertex="1" parent="whcrbTPLuVQ6Jo3Zv46X-150">
          <mxGeometry x="40.539999999999964" width="92" height="30" as="geometry">
            <mxRectangle width="92" height="30" as="alternateBounds" />
          </mxGeometry>
        </mxCell>
        <mxCell id="whcrbTPLuVQ6Jo3Zv46X-153" value="" style="shape=tableRow;horizontal=0;startSize=0;swimlaneHead=0;swimlaneBody=0;fillColor=none;collapsible=0;dropTarget=0;points=[[0,0.5],[1,0.5]];portConstraint=eastwest;top=0;left=0;right=0;bottom=0;rounded=1;strokeColor=#909090;fontColor=#1A1A1A;" vertex="1" parent="whcrbTPLuVQ6Jo3Zv46X-149">
          <mxGeometry y="60" width="132.53999999999996" height="30" as="geometry" />
        </mxCell>
        <mxCell id="whcrbTPLuVQ6Jo3Zv46X-154" value="" style="shape=partialRectangle;connectable=0;fillColor=none;top=0;left=0;bottom=0;right=0;editable=1;overflow=hidden;rounded=1;strokeColor=#909090;fontColor=#1A1A1A;" vertex="1" parent="whcrbTPLuVQ6Jo3Zv46X-153">
          <mxGeometry width="40.539999999999964" height="30" as="geometry">
            <mxRectangle width="40.539999999999964" height="30" as="alternateBounds" />
          </mxGeometry>
        </mxCell>
        <mxCell id="whcrbTPLuVQ6Jo3Zv46X-155" value="title" style="shape=partialRectangle;connectable=0;fillColor=none;top=0;left=0;bottom=0;right=0;align=left;spacingLeft=6;overflow=hidden;rounded=1;strokeColor=#909090;fontColor=#1A1A1A;" vertex="1" parent="whcrbTPLuVQ6Jo3Zv46X-153">
          <mxGeometry x="40.539999999999964" width="92" height="30" as="geometry">
            <mxRectangle width="92" height="30" as="alternateBounds" />
          </mxGeometry>
        </mxCell>
        <mxCell id="whcrbTPLuVQ6Jo3Zv46X-156" value="" style="shape=tableRow;horizontal=0;startSize=0;swimlaneHead=0;swimlaneBody=0;fillColor=none;collapsible=0;dropTarget=0;points=[[0,0.5],[1,0.5]];portConstraint=eastwest;top=0;left=0;right=0;bottom=0;rounded=1;strokeColor=#909090;fontColor=#1A1A1A;" vertex="1" parent="whcrbTPLuVQ6Jo3Zv46X-149">
          <mxGeometry y="90" width="132.53999999999996" height="30" as="geometry" />
        </mxCell>
        <mxCell id="whcrbTPLuVQ6Jo3Zv46X-157" value="" style="shape=partialRectangle;connectable=0;fillColor=none;top=0;left=0;bottom=0;right=0;editable=1;overflow=hidden;rounded=1;strokeColor=#909090;fontColor=#1A1A1A;" vertex="1" parent="whcrbTPLuVQ6Jo3Zv46X-156">
          <mxGeometry width="40.539999999999964" height="30" as="geometry">
            <mxRectangle width="40.539999999999964" height="30" as="alternateBounds" />
          </mxGeometry>
        </mxCell>
        <mxCell id="whcrbTPLuVQ6Jo3Zv46X-158" value="first_name" style="shape=partialRectangle;connectable=0;fillColor=none;top=0;left=0;bottom=0;right=0;align=left;spacingLeft=6;overflow=hidden;rounded=1;strokeColor=#909090;fontColor=#1A1A1A;" vertex="1" parent="whcrbTPLuVQ6Jo3Zv46X-156">
          <mxGeometry x="40.539999999999964" width="92" height="30" as="geometry">
            <mxRectangle width="92" height="30" as="alternateBounds" />
          </mxGeometry>
        </mxCell>
        <mxCell id="whcrbTPLuVQ6Jo3Zv46X-159" value="" style="shape=tableRow;horizontal=0;startSize=0;swimlaneHead=0;swimlaneBody=0;fillColor=none;collapsible=0;dropTarget=0;points=[[0,0.5],[1,0.5]];portConstraint=eastwest;top=0;left=0;right=0;bottom=0;rounded=1;strokeColor=#909090;fontColor=#1A1A1A;" vertex="1" parent="whcrbTPLuVQ6Jo3Zv46X-149">
          <mxGeometry y="120" width="132.53999999999996" height="30" as="geometry" />
        </mxCell>
        <mxCell id="whcrbTPLuVQ6Jo3Zv46X-160" value="" style="shape=partialRectangle;connectable=0;fillColor=none;top=0;left=0;bottom=0;right=0;editable=1;overflow=hidden;rounded=1;strokeColor=#909090;fontColor=#1A1A1A;" vertex="1" parent="whcrbTPLuVQ6Jo3Zv46X-159">
          <mxGeometry width="40.539999999999964" height="30" as="geometry">
            <mxRectangle width="40.539999999999964" height="30" as="alternateBounds" />
          </mxGeometry>
        </mxCell>
        <mxCell id="whcrbTPLuVQ6Jo3Zv46X-161" value="last_name" style="shape=partialRectangle;connectable=0;fillColor=none;top=0;left=0;bottom=0;right=0;align=left;spacingLeft=6;overflow=hidden;rounded=1;strokeColor=#909090;fontColor=#1A1A1A;" vertex="1" parent="whcrbTPLuVQ6Jo3Zv46X-159">
          <mxGeometry x="40.539999999999964" width="92" height="30" as="geometry">
            <mxRectangle width="92" height="30" as="alternateBounds" />
          </mxGeometry>
        </mxCell>
        <mxCell id="whcrbTPLuVQ6Jo3Zv46X-162" style="shape=tableRow;horizontal=0;startSize=0;swimlaneHead=0;swimlaneBody=0;fillColor=none;collapsible=0;dropTarget=0;points=[[0,0.5],[1,0.5]];portConstraint=eastwest;top=0;left=0;right=0;bottom=0;rounded=1;strokeColor=#909090;fontColor=#1A1A1A;" vertex="1" parent="whcrbTPLuVQ6Jo3Zv46X-149">
          <mxGeometry y="150" width="132.53999999999996" height="30" as="geometry" />
        </mxCell>
        <mxCell id="whcrbTPLuVQ6Jo3Zv46X-163" style="shape=partialRectangle;connectable=0;fillColor=none;top=0;left=0;bottom=0;right=0;editable=1;overflow=hidden;rounded=1;strokeColor=#909090;fontColor=#1A1A1A;" vertex="1" parent="whcrbTPLuVQ6Jo3Zv46X-162">
          <mxGeometry width="40.539999999999964" height="30" as="geometry">
            <mxRectangle width="40.539999999999964" height="30" as="alternateBounds" />
          </mxGeometry>
        </mxCell>
        <mxCell id="whcrbTPLuVQ6Jo3Zv46X-164" value="points" style="shape=partialRectangle;connectable=0;fillColor=none;top=0;left=0;bottom=0;right=0;align=left;spacingLeft=6;overflow=hidden;rounded=1;strokeColor=#909090;fontColor=#1A1A1A;" vertex="1" parent="whcrbTPLuVQ6Jo3Zv46X-162">
          <mxGeometry x="40.539999999999964" width="92" height="30" as="geometry">
            <mxRectangle width="92" height="30" as="alternateBounds" />
          </mxGeometry>
        </mxCell>
        <mxCell id="whcrbTPLuVQ6Jo3Zv46X-168" style="shape=tableRow;horizontal=0;startSize=0;swimlaneHead=0;swimlaneBody=0;fillColor=none;collapsible=0;dropTarget=0;points=[[0,0.5],[1,0.5]];portConstraint=eastwest;top=0;left=0;right=0;bottom=0;rounded=1;strokeColor=#909090;fontColor=#1A1A1A;" vertex="1" parent="whcrbTPLuVQ6Jo3Zv46X-149">
          <mxGeometry y="180" width="132.53999999999996" height="30" as="geometry" />
        </mxCell>
        <mxCell id="whcrbTPLuVQ6Jo3Zv46X-169" style="shape=partialRectangle;connectable=0;fillColor=none;top=0;left=0;bottom=0;right=0;editable=1;overflow=hidden;rounded=1;strokeColor=#909090;fontColor=#1A1A1A;" vertex="1" parent="whcrbTPLuVQ6Jo3Zv46X-168">
          <mxGeometry width="40.539999999999964" height="30" as="geometry">
            <mxRectangle width="40.539999999999964" height="30" as="alternateBounds" />
          </mxGeometry>
        </mxCell>
        <mxCell id="whcrbTPLuVQ6Jo3Zv46X-170" value="email" style="shape=partialRectangle;connectable=0;fillColor=none;top=0;left=0;bottom=0;right=0;align=left;spacingLeft=6;overflow=hidden;rounded=1;strokeColor=#909090;fontColor=#1A1A1A;" vertex="1" parent="whcrbTPLuVQ6Jo3Zv46X-168">
          <mxGeometry x="40.539999999999964" width="92" height="30" as="geometry">
            <mxRectangle width="92" height="30" as="alternateBounds" />
          </mxGeometry>
        </mxCell>
        <mxCell id="whcrbTPLuVQ6Jo3Zv46X-171" style="shape=tableRow;horizontal=0;startSize=0;swimlaneHead=0;swimlaneBody=0;fillColor=none;collapsible=0;dropTarget=0;points=[[0,0.5],[1,0.5]];portConstraint=eastwest;top=0;left=0;right=0;bottom=0;rounded=1;strokeColor=#909090;fontColor=#1A1A1A;" vertex="1" parent="whcrbTPLuVQ6Jo3Zv46X-149">
          <mxGeometry y="210" width="132.53999999999996" height="30" as="geometry" />
        </mxCell>
        <mxCell id="whcrbTPLuVQ6Jo3Zv46X-172" style="shape=partialRectangle;connectable=0;fillColor=none;top=0;left=0;bottom=0;right=0;editable=1;overflow=hidden;rounded=1;strokeColor=#909090;fontColor=#1A1A1A;" vertex="1" parent="whcrbTPLuVQ6Jo3Zv46X-171">
          <mxGeometry width="40.539999999999964" height="30" as="geometry">
            <mxRectangle width="40.539999999999964" height="30" as="alternateBounds" />
          </mxGeometry>
        </mxCell>
        <mxCell id="whcrbTPLuVQ6Jo3Zv46X-173" value="phone" style="shape=partialRectangle;connectable=0;fillColor=none;top=0;left=0;bottom=0;right=0;align=left;spacingLeft=6;overflow=hidden;rounded=1;strokeColor=#909090;fontColor=#1A1A1A;" vertex="1" parent="whcrbTPLuVQ6Jo3Zv46X-171">
          <mxGeometry x="40.539999999999964" width="92" height="30" as="geometry">
            <mxRectangle width="92" height="30" as="alternateBounds" />
          </mxGeometry>
        </mxCell>
        <mxCell id="whcrbTPLuVQ6Jo3Zv46X-174" style="edgeStyle=orthogonalEdgeStyle;rounded=0;orthogonalLoop=1;jettySize=auto;html=1;exitX=1;exitY=0.5;exitDx=0;exitDy=0;entryX=0;entryY=0.5;entryDx=0;entryDy=0;curved=1;startArrow=ERzeroToOne;startFill=0;endArrow=ERzeroToOne;endFill=0;" edge="1" parent="1" source="whcrbTPLuVQ6Jo3Zv46X-17" target="whcrbTPLuVQ6Jo3Zv46X-150">
          <mxGeometry relative="1" as="geometry" />
        </mxCell>
      </root>
    </mxGraphModel>
  </diagram>
</mxfile>
